<?xml version="1.0" encoding="utf-8"?>
<!-- Generator: Adobe Illustrator 26.3.1, SVG Export Plug-In . SVG Version: 6.00 Build 0)  -->
<svg version="1.1" id="Layer_1" xmlns="http://www.w3.org/2000/svg" xmlns:xlink="http://www.w3.org/1999/xlink" x="0px" y="0px"
	 viewBox="0 0 150 150" style="enable-background:new 0 0 150 150;" xml:space="preserve">
<g>
	<path d="M136.4,34.1c0,19.4-29.3,34.1-68.2,34.1S0,53.5,0,34.1S29.3,0,68.2,0S136.4,14.7,136.4,34.1z M81.8,136.4
		c-29,0-53.7-7.5-68.2-20.1C14,135.5,43.2,150,81.8,150s67.6-14.4,68.2-33.5C135.8,128.9,111.6,136.4,81.8,136.4z M68.2,109.1
		c-17.5,0.4-35-2.9-51.2-9.5c8.7,13.8,33.7,23.2,64.8,23.2c38.9,0,68.2-14.7,68.2-34.1c-0.1-4.2-1.4-8.3-3.9-11.7
		C136,96.4,106.6,109.1,68.2,109.1z M75,82h-6.8h-6.8C34.6,81,12.9,73.7,0,62.3c0.6,19,29.7,33.3,68.2,33.3s67.6-14.4,68.2-33.5
		C123.2,73.5,101.5,80.8,75,82z"/>
</g>
</svg>
