<?xml version="1.0" encoding="utf-8"?>
<!-- Generator: Adobe Illustrator 26.3.1, SVG Export Plug-In . SVG Version: 6.00 Build 0)  -->
<svg version="1.1" id="Layer_1" xmlns="http://www.w3.org/2000/svg" xmlns:xlink="http://www.w3.org/1999/xlink" x="0px" y="0px"
	 viewBox="0 0 150 150" style="enable-background:new 0 0 150 150;" xml:space="preserve">
<g>
	<g>
		<path d="M61.8,51.6c2.4,0.8,4.8-0.4,5.6-2.6c0.8-2.3-0.3-4.8-2.6-5.6c-2.3-0.8-4.8,0.4-5.6,2.6C58.3,48.3,59.5,50.8,61.8,51.6z"/>
		<path d="M77.4,64.5c15.1-0.4,29.9-5.8,41.7-15.2c1.5-1.2,3.3-1.9,5.1-2.3l1.7-4.8c0.6-1.8,0.1-3.8-1.4-4.9
			c-14.8-11.7-33.3-18.5-52.2-19C55.9,17.9,40.2,12.1,27,2.2l-1.6-1.2c-1.1-0.9-2.6-1.2-3.9-0.8c-1.4,0.4-2.5,1.4-2.9,2.7L0.3,52.7
			c-0.6,1.8-0.1,3.8,1.4,4.9C12,65.9,24.5,71.6,37.4,74.5C49.8,68.4,63.5,64.9,77.4,64.5z M83.9,55c0.8-2.3,3.4-3.5,5.6-2.6
			c2.3,0.8,3.5,3.4,2.6,5.6c-0.8,2.3-3.4,3.5-5.6,2.6C84.3,59.8,83.1,57.3,83.9,55z M50.9,43c2.5-6.8,10.1-10.4,16.9-7.9
			c6.8,2.5,10.4,10.1,7.9,16.9c-2.5,6.8-10.1,10.4-16.9,7.9C51.9,57.4,48.4,49.9,50.9,43L50.9,43z M34.4,37c0.8-2.3,3.4-3.5,5.6-2.6
			c2.3,0.8,3.5,3.4,2.6,5.6c-0.8,2.3-3.4,3.5-5.6,2.6C34.7,41.8,33.5,39.3,34.4,37z"/>
		<path d="M42.1,147.1c0.5,1.3,1.6,2.3,2.9,2.7c1.4,0.4,2.8,0.1,3.9-0.8c13.3-10.6,30-16.9,46.9-17.4c18.9-0.5,37.7-7.3,52.5-19
			c1.5-1.2,2-3.2,1.4-4.9l-18.3-49.6c-0.5-1.3-1.6-2.3-2.9-2.7c-1.4-0.4-2.8-0.1-3.9,0.8c-13.3,10.6-30,16.6-46.9,17.1
			c-18.9,0.5-37.4,7.3-52.2,19c-1.5,1.2-2,3.2-1.4,4.9L42.1,147.1z M110,89.3c2.3-0.8,4.8,0.3,5.6,2.6c0.8,2.3-0.3,4.8-2.6,5.6
			c-2.3,0.8-4.8-0.3-5.6-2.6C106.6,92.7,107.7,90.2,110,89.3z M82.2,90.1c6.8-2.5,14.4,1.1,16.9,7.9c2.5,6.8-1,14.4-7.9,16.9
			c-6.8,2.5-14.4-1-16.9-7.9C71.9,100.2,75.4,92.6,82.2,90.1z M60.5,107.4c2.3-0.8,4.8,0.3,5.6,2.6c0.8,2.3-0.3,4.8-2.6,5.6
			c-2.3,0.8-4.8-0.3-5.6-2.6C57,110.7,58.2,108.2,60.5,107.4z"/>
		<path d="M88.2,106.6c2.3-0.8,3.4-3.4,2.6-5.6c-0.8-2.2-3.3-3.5-5.6-2.6c-2.3,0.8-3.4,3.4-2.6,5.6
			C83.4,106.3,85.9,107.5,88.2,106.6z"/>
	</g>
</g>
</svg>
