<?xml version="1.0" encoding="utf-8"?>
<!-- Generator: Adobe Illustrator 26.3.1, SVG Export Plug-In . SVG Version: 6.00 Build 0)  -->
<svg version="1.1" id="Layer_1" xmlns="http://www.w3.org/2000/svg" xmlns:xlink="http://www.w3.org/1999/xlink" x="0px" y="0px"
	 viewBox="0 0 150 150" style="enable-background:new 0 0 150 150;" xml:space="preserve">
<g>
	<g>
		<g>
			<path d="M13.8,88H4.4C2,88,0,90,0,92.4v53.2c0,2.4,2,4.4,4.4,4.4h9.4c7.3,0,13.2-5.9,13.2-13.2v-35.6C27,93.9,21.1,88,13.8,88z"
				/>
		</g>
	</g>
	<g>
		<g>
			<path d="M53.4,45.6C52.7,58.3,56.9,70,64.3,79c5.5,1.6,10.7,4.4,15.1,8.3c0.8,0.6,1.3,0.6,2.2,0.7h15.6c6.1,0,11.4,3,14.5,7.7
				c21.8-4.7,38.2-24.1,38.2-47.3C150,20.5,126.2-2,97.8,0.3C73.9,2.1,54.8,21.7,53.4,45.6z M106.1,70L106.1,70l-0.1,5
				c0,2-1.6,4.2-3.6,4.5C99.4,80,97,77.9,97,75.2V70c-3-1-5.8-2.8-8.2-5.7c-1.6-1.8-1.3-4.6,0.5-6.2c1.9-1.6,4.8-1.3,6.3,0.5
				c2.4,2.8,5.1,3.9,7.4,3.1c2.5-0.9,3.8-3.8,2.4-6.3c-0.8-1.4-2.3-2.2-4-2.2C94,53.2,88,47.3,88,40c0-5.3,3.2-10.1,8.3-12.1
				c0.2-0.1,0.5-0.1,0.7-0.2v-5.1c0-2,1.6-4.2,3.6-4.5c2.9-0.5,5.4,1.6,5.4,4.3v5.3c2.3,0.8,4.6,1.9,6.7,3.9
				c1.8,1.7,1.8,4.5,0.1,6.2c-1.7,1.8-4.6,1.8-6.4,0.1c-2.2-2-4.6-2.8-6.6-1.9c-2.1,0.9-3.2,3-2.6,5.2c0.5,1.9,2.3,3.2,4.3,3.2
				c7.5,0,13.5,5.9,13.5,13.2C115,63.1,111.4,68.1,106.1,70z"/>
		</g>
	</g>
	<g>
		<g>
			<path d="M146.7,97.7c-0.5-0.9-1.2-1.6-2-2.2c-3.2-2.8-8.6-2.5-11.7,0.9l-19.7,22.7l-0.6,0.7c-2.4,2.7-5.9,4.2-9.5,4.2H70.3
				c-2,0-4.1-1.6-4.5-3.6c-0.5-2.9,1.6-5.4,4.4-5.4h27c4.8,0,8.8-4,8.8-8.8v-0.5c0-4.8-3.9-8.7-8.7-8.7H80.9c-2.7,0-5.5-1-7.8-3
				C62.3,84.4,46.6,83.8,35,92v54.5c8.6,2.3,17.4,3.6,26.3,3.6h38.7c9.7,0,18.8-4.6,24.6-12.3l20.7-27.6
				C148.4,106.2,148.6,100.7,146.7,97.7z"/>
		</g>
	</g>
	<g>
	</g>
	<g>
	</g>
	<g>
	</g>
	<g>
	</g>
	<g>
	</g>
	<g>
	</g>
	<g>
	</g>
	<g>
	</g>
	<g>
	</g>
	<g>
	</g>
	<g>
	</g>
	<g>
	</g>
	<g>
	</g>
	<g>
	</g>
	<g>
	</g>
</g>
</svg>
