<?xml version="1.0" encoding="utf-8"?>
<!-- Generator: Adobe Illustrator 26.3.1, SVG Export Plug-In . SVG Version: 6.00 Build 0)  -->
<svg version="1.1" id="Layer_1" xmlns="http://www.w3.org/2000/svg" xmlns:xlink="http://www.w3.org/1999/xlink" x="0px" y="0px"
	 viewBox="0 0 150 150" style="enable-background:new 0 0 150 150;" xml:space="preserve">
<g>
	<g>
		<g>
			<path d="M2,75.2c-1.6,0.6-2.4,2.4-1.9,4l2,5.4l14.9-14.9L2,75.2z"/>
		</g>
	</g>
	<g>
		<g>
			<path d="M16.2,123.2l9,24.7c0.3,0.8,0.9,1.4,1.6,1.8c0.4,0.2,0.9,0.3,1.3,0.3c0.4,0,0.7-0.1,1.1-0.2l9.9-3.7L16.2,123.2z"/>
		</g>
	</g>
	<g>
		<g>
			<path d="M149.7,102.1l-10.3-28.3l-24.7,24.7l12.2-4.5c1.6-0.6,3.4,0.2,4,1.8c0.6,1.6-0.2,3.4-1.8,4l-15.6,5.7
				c-0.4,0.1-0.7,0.2-1.1,0.2c-1.3,0-2.5-0.8-2.9-2c0,0,0,0,0-0.1l-26.2,26.2l64.5-23.8C149.5,105.5,150.3,103.7,149.7,102.1z"/>
		</g>
	</g>
	<g>
		<g>
			<path d="M149,51L99,1c-1.2-1.2-3.2-1.2-4.4,0L0.9,94.7c-1.2,1.2-1.2,3.2,0,4.4l50,50c0.6,0.6,1.4,0.9,2.2,0.9
				c0.8,0,1.6-0.3,2.2-0.9L149,55.4C150.2,54.2,150.2,52.2,149,51z M36.6,86.6L24.1,99.1c-0.6,0.6-1.4,0.9-2.2,0.9s-1.6-0.3-2.2-0.9
				c-1.2-1.2-1.2-3.2,0-4.4l12.5-12.5c1.2-1.2,3.2-1.2,4.4,0C37.8,83.4,37.8,85.4,36.6,86.6z M90.5,90.6c-2.2,2.2-5.2,3.3-8.6,3.3
				c-5.5,0-12-2.9-17.4-8.3c-3.9-3.9-6.7-8.7-7.8-13.3c-1.2-5.2-0.2-9.6,2.8-12.6c3-3,7.5-4,12.6-2.8c4.6,1.1,9.3,3.8,13.3,7.8
				C94.1,73.3,96.4,84.7,90.5,90.6z M130.2,55.4l-12.5,12.5c-0.6,0.6-1.4,0.9-2.2,0.9s-1.6-0.3-2.2-0.9c-1.2-1.2-1.2-3.2,0-4.4
				L125.8,51c1.2-1.2,3.2-1.2,4.4,0C131.5,52.2,131.5,54.2,130.2,55.4z"/>
		</g>
	</g>
	<g>
	</g>
	<g>
	</g>
	<g>
	</g>
	<g>
	</g>
	<g>
	</g>
	<g>
	</g>
	<g>
	</g>
	<g>
	</g>
	<g>
	</g>
	<g>
	</g>
	<g>
	</g>
	<g>
	</g>
	<g>
	</g>
	<g>
	</g>
	<g>
	</g>
</g>
</svg>
