<?xml version="1.0" encoding="utf-8"?>
<!-- Generator: Adobe Illustrator 26.3.1, SVG Export Plug-In . SVG Version: 6.00 Build 0)  -->
<svg version="1.1" id="Layer_1" xmlns="http://www.w3.org/2000/svg" xmlns:xlink="http://www.w3.org/1999/xlink" x="0px" y="0px"
	 viewBox="0 0 304 500" style="enable-background:new 0 0 304 500;" xml:space="preserve">
<style type="text/css">
	.st0{fill:#060D1A;}
	.st1{fill:#FDFEFE;}
	.st2{fill:#797A84;}
</style>
<path class="st0" d="M171.6,499.8c-25.4,0-50.8,0-76.2,0c1.3-7.8,2.4-15.7,3.3-23.5c0.6-1,0.7-2.1,0.4-3.3c0.1-0.4,0.1-0.9,0.2-1.3
	c0.8-1.2,0.7-2.6,0.5-3.9c1-8.7,1.9-17.4,2.9-26.1c0.1-1.3-0.3-1.8-1.4-2.2c-3.7-1.3-7.5-2.3-11.2-3.5c-7.6-2.5-11.6-8.5-14.3-15.5
	c-0.3-1.8-0.2-3.8-1.5-5.3c-0.4-0.8-1.2-1.1-1.9-1.6c-14.4-9.8-29.9-17.7-45.5-25.4c-1.6-0.8-3-2.1-5.1-1.9c-0.7,0.1-1-0.6-1.2-1.2
	c-0.5-1.3-0.7-2.7-0.1-4.1c0.4-1,0.2-1.7-0.4-2.5c-2.2-3.5-4.4-7-6.5-10.6c-0.5-0.8-1.6-1.4-1.3-2.5c0.2-0.4,0.4-0.8,0.6-1.2
	c0.3-0.5,0.5-1.3,1.3-1c0.8,0.3,0.4,1,0.3,1.6c-0.2,1.1,0,2.1,0.5,3.6c0-1.4,0-2.4,0-3.4c0-2.1,0.8-5.4,1.2-6.8
	c0.3-1.1,0.9-1.2,1.8-1.3c1.8-0.2,2.5-1.7,3.9-3.2c-1.8,0.2-1.8,1.8-3.2,2c0.1-0.7,0.1-1.3,0.3-1.8c2-3.1,2.7-6.6,3.5-10.1
	c0.5-2.2,0.2-4.8,1.7-6.6c2.4-2.9,5.5-4.9,9.1-6c1.7-0.5,3.2-1,4-2.7c0.1,0,0.1,0,0.2-0.1c0,0,0-0.1,0-0.1c-0.1,0.1-0.1,0.1-0.2,0.2
	c-1.8,0.1-3.6,1.2-5.5,0.7c-0.1,0-0.4,0.2-0.5,0.4c-0.9,1.6-3.3,1.5-3.9,3.5c-0.3,0.8-1.2,0.4-1.6,0.3c-0.9-0.2-0.1-0.8,0-1.3
	c0.7-3.7,2.7-6.7,5.8-8.5c3.5-2.1,5.2-4.9,5-8.8c0,0,0.1-0.1,0.1-0.1l-0.1,0.1c-1.6,4.1-5.1,5.6-9.5,6.4c2.1-3.6,4.4-6.8,5.3-10.6
	c0.6-1.7,1.1-3.4,1.7-5.1c1.1,0.1,1-0.9,1.2-1.5c2.3-4.6,4.3-9.5,7.5-13.6c2.6-3.2,3.8-6.3,1.7-10.2c0-0.1-0.1-0.1-0.1-0.2
	c-0.3-1.5-0.6-3.1-1-4.6c2.4,1.9,3.3,1.8,4.1-0.7c0.2-0.6,0-1-0.3-1.5c-0.4-0.5-0.7-0.2-1.2-0.1c-1,0.2-1.9,1-3,0.8
	c-0.1-0.3-0.1-0.6-0.2-0.8c0.2-0.4,0.2-0.8-0.2-1c0-0.4-0.1-0.9-0.1-1.3c0.1-2.1-0.1-4.5,1.4-6.1c3.6-3.8,5.2-8.1,5.7-13.4
	c0.5-6,3-11.7,7-16.4c0.6-0.7,0.9-2.5,2.7-1.4c0.5,0.3,0.6-0.5,0.7-0.9c0.3-1.4,0.9-2.6,1.8-3.7c0.5-0.7,1.1-1.2,1.2-2.8
	c-1.9,2.6-4.1,3.9-5.6,6.1c-2.2,3.3-4.8,6.4-8.3,8.5c2.5-8.4,4.5-17,8.2-25c0.3-0.2,0.5-0.4,0.4-0.8l0.1-0.2
	c4.3-4.4,6.4-10.2,9.1-15.5c3-5.8,6.8-11.3,9.5-17.3c0.8-1.7,0.2-2.2-0.8-3.4c-1.7,4.4-3.3,8.5-5.7,12.2l0,0
	c-0.3-1.5,0.9-2.7,0.9-4.1c0.8-0.8,0.9-1.8,1.1-2.9c-0.7,0.8-0.9,1.8-1.1,2.8c-1.1,0.7-0.9,0-0.8-0.7c0.3-2.7,2.3-4.6,3.2-7
	c1.4-4,3.3-7.7,5.2-11.4c0.9-1.8,2.8-2.5,3.9-3.9l0.1,0.1c-0.3,2.9-2.8,5.4-1.6,8.9c0.1-2.6,0.9-4.7,2.7-6.4
	c-2.4,6.9-4,14.1-6.2,21.1c4-7.8,5.5-16.4,8.5-24.8c-0.9,0.4-1.6,1.1-2.2,0.4c-0.7-0.8,0.5-1.3,0.6-2c0.1-0.1,0.1-0.1,0.2-0.2
	c-0.1,0.1-0.1,0.1-0.2,0.2c-0.9-0.4-1.7-0.5-2.6,0.3c1.2-2.9,3.8-4.7,5.4-7.1c0.4-0.1,0.7-0.2,0.7-0.6c0,0-0.1-0.1-0.1-0.1
	c-0.4,0-0.6,0.3-0.7,0.6c-1,0.1-1.6-0.1-0.7-1.1c1-1.2,1.3-2.5,0.7-3.9c1.9-2,4-3.9,6.3-5.4c0.6,0.1,0.9-0.1,0.9-0.7
	c0.1-0.1,0.3-0.2,0.4-0.3c0.9,0.1,1.6-0.2,1.9-1.1c0.9-0.4,1.8-0.8,2.7-1.2c0.5,0.2,1,0,1.1-0.4c0.2-0.8-0.5-1.1-1.1-1.4
	c-0.1-0.1-0.2-0.2-0.2-0.3c0.1-0.3,0-0.4-0.3-0.5l0-0.1c-0.5-1.8-1-3.5-1.8-5.1c-0.9-1.9-1.3-3.9-0.6-6.3c1.7,1.8,0.9,4.1,2.4,5.7
	c0.4-3.4-0.1-6.6,0.8-9.8c0.9-2.9,1.1-5.9,1.1-8.9c0.2-1,0.3-2,0.5-2.9c0.2-1.6,0.7-3.1,2-4.2c3.3-2.8,6.7-5.5,10-8.3
	c0.9,0,1.4,0.1,0.7,1.2c-1.5,2.2-3.3,4.2-4.5,6.6c-0.8,0.7-1.9,1.4-1.6,2.9c1-0.8,1.5-1.7,1.9-2.6c1.2-0.5,1.4-1.9,2.4-2.7
	c0.6,0.2,0,1.1,1,1.2c1.2-3.4,2.3-6.9,4.7-9.8l0.1,0c0.4,0.1,0.7-0.1,0.8-0.5c0.3-0.2,0.6-0.4,0.9-0.5c0.7,0.1,1.2-0.1,1.5-0.7
	c0.3-0.1,0.5-0.2,0.8-0.3c0.5,0.2,1,0.1,1.2-0.5c0.4-0.2,0.8-0.3,1.2-0.5c4-0.8,7.9-2.2,11.8-3.5c2.4-0.8,4.8-2.1,7.3-1.7
	c1.8,0.3,3.4,1.6,5.1-0.1c0.1-0.1,0.6-0.1,0.6,0.1c1.1,1.9,1.8,0.2,2.4-0.4c1.1-1.2,2.5-1.7,4.1-2.4c-0.6-0.3-1-0.5-1.1-0.9
	c1.7,0.3,2.8-1.5,4.5-1.3c-0.1,0.1-0.1,0.2,0,0.3c-0.6,1.9-2.1,3.5-2.3,5.6c-0.2,0.1-0.7,0.3-0.7,0.4c-0.4,3.1-0.8,6.2-1,9.3
	c-0.2,2.9,0.1,5.8,0.3,8.7c0.2,4.3,2,7.9,4,11.5c0.4,0.7,1.2,1.3,1.9,0.5c2.3-2.6,2.8,0.2,3.8,1.2c0.6,0.6,1.1,1.7,0.3,2.5
	c-1.1,1-2.8,0.5-4,1.4c-0.7,0.5-1.3-0.6-1.9-1c-1.9-1.2-3.1-3.4-5.8-3.6c0.3,1,1,1.5,1.6,2.1c1.7,1.6,3.8,2.9,5.3,4.8
	c2.8,3.4,4.5,7.3,6.7,11c1.3,2.1,2.9,4.1,3.1,6.8c0.1,1.2-0.5,2.3-0.3,3.6c1.9,9.1,6.4,16.6,13.6,22.4c1.8,1.5,3.6,3.9,6.6,3.4
	c0.3-0.1,0.4,0.2,0.6,0.5c0.6,1.2,1.6,2.2,1.6,3.8c0,0.9-0.3,1.9,0.2,2.8c1,1.7,2,3.3,2.3,5.4c0.4,3.2,2.9,5.8,3.1,9.2
	c0.1,1.2,1.5,1.8,2.3,1.6c1.1-0.3,0.5-1.8,0.3-2.3c-1-1.8-1.4-3.8-2.1-5.7c-1.4-4.1-2.9-8.2-4.1-12.6c2.7,0.5,5,1.2,7.4,1.5
	c5.1,0.6,10.2,1,15.4,1.1c1.9,0,3.8-0.2,4.1-2.7c0.1-0.4,0.1-1,0.7-0.9c0.6,0.1,0.5,0.6,0.4,0.9c-0.3,0.6,1.1,1.2-0.1,1.7
	c-1,0.5-1,0.6-0.5,1.2c0.3,0.5,0.7,0.9,1,1.3c1-0.8,0.3-2.6,2.1-3c8.1-1.9,13.5-6.9,16.6-14.6c1.7-4.1,2.2-8.5,3.7-12.7
	c0.5-1.3,0.7-2.9-0.1-4.3c0.8-0.5,1.7-0.1,2.1,0.3c2.8,2.7,6.7,4.2,8.7,7.8c0,4.4-0.1,8.7-1.1,13c-0.4,1.5-0.9,2.9-0.9,4.5
	c0,5.1-0.1,10.2-0.1,15.3c0,10.3,0.7,20.6-1.1,30.8c-0.9,5.1-2.4,10.2-1.8,15.4c0.4,3.3,0.2,6.7,2.1,9.8c0.5-1.8-0.5-3.4-0.1-5
	c0.6-2.4,0.3-4.8,0.2-7.1c-0.1-4.2,0.6-7.8,4.8-9.9c0.5-0.2,0.9-0.8,1.3-1.3c1-1.1,1.8-2.7,3.1-3.4c3.5-2,4.1-5.3,4.4-8.8
	c0-0.5-0.1-1.1,0.7-1.2c0.4,2.6,0.7,5.3,2.9,7.2c0.4,0.3,0.5,0.8,0.4,1.3c-0.4,1.3-0.1,2.6-0.1,3.8c0,1.4,0,3.2-1.9,3.9
	c-2.6,1-4.9,4.1-4.2,6.7c0.5,2,0.2,3.7,0.2,5.6c0,0.4,0,0.8,0.1,1.1c0.8,3.2,0.9,6.5,0.9,9.8c-0.1,5.1-0.4,10.3,0.1,15.4
	c0.5,4.6-0.3,9.1,0.5,13.7c0.6,3.3-0.6,6.7,0.1,10.2c0.4,2.2,1.3,4.6,0.1,6.9c-0.1,0.2-0.1,0.7,0,0.9c1.3,2.8,1.1,5.8,1.8,8.7
	c0.4,1.6,0.3,2.6-1.6,2.7c-0.7,0-1.7,0.4-1.5,1.1c1,2.3-0.7,4.9,0.8,7.1c0.4,0.5,0.7,1.2,0.3,1.7c-0.6,0.8-1-0.3-1.5-0.4
	c-0.6-0.1-1.3-0.8-1.9-0.2c-0.5,0.4-0.3,1.1-0.3,1.7c0.4,5.8,0.4,11.7-0.2,17.5c-0.1,1.2-0.6,2.6,1.1,3.4c0.9,0.4,0.7,1.3,0.5,2
	c-0.1,0.4-0.5,0.8-0.6,1.2c-0.3,1.2,0,2.3,1.2,2.7c1.3,0.4,1.3-0.9,1.8-1.6c0.3-0.5,0-1.2,0.7-1.6c0.6,0.3,0.4,0.8,0.3,1.2
	c-0.3,4.5-0.6,9-1,13.5c-0.1,1.2-0.3,2.3,1.2,2.4c1.2,0.1,2.7,0.6,2.8-1.6c0-1.1,0.4-2.2,0.7-3.2c1.2,0.2,0.3,1.3,0.9,1.6
	c0.5-0.2,0.4-0.9,1-0.8c0.1,0.9,0.4,1.9,0.3,2.8c-0.2,1.4-0.6,2.8,0.4,4.1c0.6,0.8,1.3,2,2.2,1.6c0.9-0.4,1.1-1.7,0.8-2.8
	c-0.1-0.3-0.6-0.6-0.1-0.9c0.1-0.1,0.3-0.1,0.5,0c0.7,0.1,0.4,0.6,0.4,1c-0.1,1.6,0,3.3,0,5.1c-0.9-0.8-2.5-1.3-2.2,0.1
	c0.3,1.3-0.4,2.5,0.1,3.8c0.3,0.7,0.5,1.1,1.2,1.1c0.9,0,0.7,0.5,0.9,1.1c0.7,2.3-0.8,4.1-1.4,6.1c-0.1,0.4-0.7,0.8-0.4,1.2
	c0.4,0.5,1,0.3,1.5,0.3c0.5,0,0.6-1,1.3-0.5c-0.2,0.8-0.8,1.8,0.8,2c0.4,0.1,0.6,0.5,0.4,0.9c-0.1,0.1-0.5,0.2-0.6,0.2
	c-2.7-2.1-2,0.8-2.4,1.7c-0.5,1.4,0.6,3.1-0.6,4.3c-1.6,1.5-1.6,3.8-1.9,5.5c-0.8,4.5-1.5,9.2-0.6,13.8c-0.1,0.3-0.1,0.5-0.2,0.8
	c-0.6-0.3-0.4-1.4-1.7-1.2c-1.3,0.2-1.2,1.1-1.3,1.8c-0.3,1.3-0.2,2.8-1.7,3.8c1.3,0.1,2.2,0.6,3-0.4c0.4-0.4,0.2,0.5,0.5,0.6
	c0.9,0.9,1.9,1.4,3.2,0.9c0.9-0.3,0.8-0.4,0.9,0.8c1.2,1.3,2.5,2.5,4.1,0.5l0.2,0l0.2,0c-0.6,0.8-1,1.7,0.1,2.3
	c0.9,0.4,1.1,1.2,1.6,2c0.8,1.3,1.1,2.7,1.6,4c0.3,0.7,2.8,1.4,0,2.2c-0.4,0.1-0.1,0.7,0.2,0.9c0.6,0.3,0.7,0.7,0.7,1.3
	c-0.1,0.1-0.1,0.2-0.1,0.3c-1.1,0.3-2,0.4-2.3-1.2c-0.6-3.2-3.9-5.2-4.1-8.6c-2.2-0.8-3.2-4.3-6.4-2.6c-0.6,0.3-0.5-0.2-0.7-0.5
	c-1-1.6-2.7-1-4.1-1c-1.1,0-1,1.3-1.1,2.2c-0.4,2.4-2,3.9-3.7,5.5c-1.5,1.6-4.8,2.4-3.2,5.8c0.1,0.1,0,0.4-0.1,0.4
	c-1.5,1.4-1.6,3.4-2.5,5c-2,3.7-4.8,7.1-4.9,11.6c0,0.6-0.6,1.2-0.9,1.9c-0.5,1-1.1,2,0.4,2.9c0.6,0.3,1,1.6,0.7,1.8
	c-2.8,2.1,0,3.1,0.8,4.4c0.2,0.3,0.9,0.6,0.4,0.8c-1.1,0.5-1.4,2.2-2.9,2.1c-0.6,0-1.3,0.1-1,1c0.4,1.2-0.4,1.2-1.2,1.3
	c-1.6,0.1-2,1.6-2.6,2.7c-0.5,0.9,0.2,1.6,0.9,2.1c1.9,1.4,5,1.1,6.4-0.9c1.7-2.4,3-5,3.7-7.9c0.6-2.6,0.7-5.4,2.1-7.7
	c1.3-2.1,2.3-4.3,2.9-6.7c0.3-0.9,0.4-1.9,1.5-2.3c0.6,3,1.1,5.9,1.8,8.7c0.5,1.9,0.5,3.3-1.4,4.2c-0.4,0.2-0.6,0.7-0.5,1.2
	c0.5,3.2-0.1,6.2-1.1,9.2c-0.5,1.3-1.2,2.7-0.5,4.2c0.4,0.7-0.4,0.6-0.7,0.8c-2,1.4-3.8,3-5.2,4.9c-2.2,2.9-5,4.8-8.4,5.9
	c-2.1,0.7-3.5,2.7-3.1,4.5c0.4,1.7,2.6,3.2,4.5,2.6c1.3-0.4,3.8-0.9,2.6-3.6c-0.1-0.1,0.1-0.5,0.2-0.6c2.4-1.4,3.9-4.7,7.6-3.4
	c1.2,0.4,3.8-1.9,3.6-2.8c-0.7-3.3,0.5-4.4,3.8-3.7c0.5,0.1,1.4-0.7,1.2,0.5c-0.3,2.2,0.7,4,2,5.6l0,0c-0.3-0.1-0.5,0-0.5,0.3
	c-3.1,0.7-3.5,2.9-3.7,5.7c-0.3,4.8-1.1,9.6-1.9,14.4c-0.4,2.2-1.4,4.2-1.3,6.4c-26.2,0-52.4,0-78.6,0c0.1-4,0.8-7.9,0.7-12
	c-0.2-8.1-0.9-16.1-0.8-24.2c0.1-2.2,0.4-4.4,0.5-6.6c0.1-0.9-0.1-1.6-1.1-1.8c-1.1-0.2-1,0.8-1.1,1.4c-0.5,3.1-0.8,6.2-1.3,9.3
	C177.8,477.4,174.8,488.6,171.6,499.8z M154.1,155.3L154.1,155.3c-0.2,0.4-0.2,0.7,0.5,0.5l-0.1,0c0.1,1.5,1.1,2.6,2,3.5
	c3,3,4.6,6.6,5.4,10.7c0.4,2.3,0.8,4.7,1.2,7c-0.3,0.7-0.3,1.3,0.3,1.8c0,0.2,0.1,0.4,0.1,0.6c-0.4,0.6-0.1,1.2-0.1,1.8
	c0.2,6.6,0.3,13.2-1,19.7c-0.8,3.9-1.2,7.8-1.8,11.7c-0.3,2.3-0.7,4.5-0.8,6.8c-0.3,4.2-1.4,8.4-1.1,12.7c-0.2,1.1-0.7,2.1-0.9,3.2
	c-1,6-2.1,12-3.2,18c-0.7,6.5-1.8,13-2.9,19.4c-0.1,0.2-0.4,0.3-0.4,0.5c-1,8.7-3.2,17.2-4.7,25.8c-0.8,4.7-2.2,9.2-3.5,13.8
	c-0.1,0.4-0.6,0.8,0,1c0.5,0.2,0.9-0.1,1.1-0.6c0.6-1.3,1.2-2.5,1.6-3.8c1.3-4.1,2.4-8.2,3.6-12.3c2.2-7.4,5.1-14.7,4.5-22.7
	c0.3-3.1,0.1-6.5,1.2-9.4c1.1-3,2.2-6.1,3.1-9.2c0.9-1.9,1.1-4,1.5-6c0.9-4.9,2.2-9.8,2.3-14.8c3.3-7.2,3.2-15,3.6-22.7
	c0.1-1.4,0.3-2.8,0.4-4.2c0.4-12-0.4-23.9-1.9-35.8c-0.2-1.8,0.3-4.1-0.5-5.4c-1.9-2.8-1.5-5.7-1.6-8.6c-0.4-7-1-13.9-6-19.5
	c-1.9-2.2-3.4-4.7-5.5-6.8c-3.4-3.3-5.7-3.7-8.7-1.8c3.3,3.3,5,7.5,6.6,11.7c0.8,2.1,1.4,4.2,2.5,6.1c-0.2,0.6,0,1,0.4,1.3
	c0.3,0.9,0.7,1.8,1,2.8c-0.7,1.4,1.2,1.7,1.3,2.8C153.7,155.2,153.9,155.3,154.1,155.3z M85.7,160.8c0,0,0.1-0.1,0.1-0.1
	C85.7,160.7,85.7,160.7,85.7,160.8c-0.1,0.1-0.1,0.1-0.2,0.2C85.6,160.9,85.6,160.8,85.7,160.8z M202.1,193.6L202.1,193.6
	c-0.4-0.6-0.9-0.8-1.5-0.6c-0.3,0.1-0.3,0.4,0.1,0.6c0,0.3,0,0.7,0,1c0,0.4,0.2,0.5,0.5,0.4c1.5,0.3,3.1,0.7,4.6,1
	c-0.1,0.6-0.1,1.4,0.8,1.3c1.3-0.1,2.7,0.1,3.5-1.2c0.3-0.5,0.3-1.1,1.1-1.4c2.1-0.7,3-2.6,4.1-4.2c0.3-0.4,0.6-1,0.1-1.4
	c-0.4-0.4-1.2-0.3-1.5,0c-0.8,0.9-1.9,1.3-2.8,2.2c-1.1,1.3-1.6,3.2-3.5,3.7c-1.3-0.3-2.7-0.7-4-1
	C203.2,193.4,202.7,193.4,202.1,193.6z M184.1,212.9c0.1-0.1,0.1-0.3,0.2-0.4c0.4,0.4,1,0.7,1.4,0.4c1-0.8,2-0.8,2.9,0.1
	c0.5,0.6-0.7,1.9,0.8,2.2c-1.9,1-0.7,2.9-1.3,4.3c-0.9,2-0.4,4.1,0.7,6c0.4,0.5,0.4,1.3,1.3,1.4c0.4-2.2,0.8-4.3,1.7-6.3
	c0.2-0.7,0.7-1.1,1.2-1.5c1.2,0.4,1.2-1.5,1.8-1.2c1.6,0.9,2.1-0.3,3-1.1c1.7,0.6,3-0.6,4.5-1c0.9,0.2,1.7,0.2,2.1-0.8
	c1.1-0.1,1.9,0.2,2.6,1.2c1.1,1.5,2.6,1.8,4,0.3c0.8-0.3,1.1-1.7,2.3-0.8c0.1,1.3-1.3,3.1,0.4,3.7c3.3,1.2,3.4,4.2,4.2,6.8
	c0.2,0.6-0.1,1.7,0.7,1.7c1,0,1.2-1,1.2-1.8c1.3-4.1,0.3-8-1-11.9c-0.2-0.7-0.8-1.7-0.2-2.1c3.1-2,2.1-4.6,1.2-7.2
	c-0.1-0.9-0.8-1.5-1.5-1.9c-2.8-1.6-6-2.1-9.2-2.2c-1.1,0-1.7,0.1-2.2-1c-0.8-1.6-2.2-0.6-3.2-0.3c-1.3,0.5-0.2,1.4,0,2.2
	c-0.5-0.1-1.4,1-1.4-0.6c0.4-1.5-0.7-1.7-1.7-1.8c-1.6-0.1-3.2,0-4.8-0.1c-1.4-0.1-1.9,0.4-2,1.8c0,1.4-0.2,2.8-2.3,2.5
	c-0.7-0.1-1.6,0.5-1.8,1.2c-0.2,0.9,0.7,0.7,1.2,0.9c0.6,0.2,0.5,0.7,0.4,1.2c-0.3,1.4,0.4,1.7,1.6,1.8c1.3,0.1,1.3,0.2,1.1,1.8
	c-0.5-0.4-1-0.8-1.7-1.3c-0.2,0.7-0.3,1.2-0.6,1.6c-0.4,0.7-0.9,1.6-1.9,1.4c-0.9-0.1-1.1-1.1-1.2-1.8c-0.2-1.4-0.7-2.9,0.3-4.2
	c0.6,0,1-0.2,1.2-0.8c0.1-0.3,0-0.5-0.3-0.7c-1.2-0.7-2.7,0.1-3.1,1.6c0.1,1.1,0.2,2.3,0.3,3.4c-3.2,0.8-3.9,1.7-3.2,3.6
	c0.2,0.9,0.6,1.6,1.6,1.5c0.3,0,0.5-0.5,0.8-0.8c-0.5-0.3-1.1-0.6-1.6-0.8C184.2,212.9,184.2,212.9,184.1,212.9z M204.8,348.9
	c0-1.9,1-3.7,0.4-5.7c-1.4,1.2-0.7,2.7-0.9,3.9c-1,1.7,0.3,3.8-1,5.5c-0.8-1,0.1-2.2-0.5-3.2c-0.7,1.2-0.8,2.4-0.1,3.5
	c0.6,1.1,1.5,0.3,2.2,0.2c0.2,1,1,1,1.7,0.8c0.3-0.1,0.5-0.5,0.3-0.7c-0.5-0.4-1.2-0.4-1.8-0.1c-0.1,0-0.1,0-0.2,0
	C204.9,351.7,205.2,350.3,204.8,348.9z M257.1,262.1c0.4-1.3,0.4-2.6-0.1-3.8c-0.3-4,0-8,0.2-12c0.1-1,0.7-2.7-0.5-3.1
	c-1.3-0.4-1,1.5-1.5,2.3c-3,4.4-3.6,9.6-3.9,14.5c-0.6,7.6,0.9,15.3,2.7,22.7c1.2,5.1,2.1,10.3,3.2,15.5c0.5,2.1,0.3,4.4,1.5,6.4
	c0.2-6.1,0.4-12.3,0.1-18.4C258.4,278.1,257.6,270.1,257.1,262.1z M105.6,399.1c-0.6-0.4,0.6-2.2-1-1.8c-3.8,1-7.6,2-10.9,4.2
	c-1.8,1.2-1.6,2.5,0.3,3.6c0.5,0.3,0.5,0.7,0.8,1c1.7,1.6,1.8,4.1,2.4,5.9c0.9,2.9,2.4,6.1,1.1,9.4c-0.5,1.2,0,2.3,0.4,3.4
	c1.8-0.8,2.8,1.3,4.2,1.3c1.6,0,2.3,1.1,2.4,1.9c0.3,3.8,3.1,5.3,5.7,7.1c0.8,0.6,1.8,1,1,2.4c-0.5,0.8,0.2,1.3,0.9,1.5
	c0.7,0.3,1.2-0.1,1.5-0.7c0.6-1,0.5-2.1-0.1-3.1c-0.6-1.1-1.3-2.3-2.1-3.3c-5.2-6.9-8.5-14.5-8.5-23.3c0-1.1-0.5-2.3,0.2-3.2
	C105.3,403.5,105.1,401.3,105.6,399.1z M108.2,402.4c0.4,2.4,0.8,4.9,1.2,7.4c0.3,2.4,2.1,4.2,3.1,6.3c1.4,2.9,4,5.3,7.1,6.7
	c0.8,0.4,2.2,1.3,3.2,0c1-1.3,0-2.4-0.8-3.3c-1.4-1.6-2.8-3.3-3-5.4c-0.4-3.3-1.6-6.2-3.1-9.1c-1-2.1-1.5-4.4-1.6-6.7
	c0-0.6,0.2-1.7-1-1.7C111,396.7,108.1,400.1,108.2,402.4z M94.8,430.4c2,0.1,2.2-1,1.8-2.4c-0.3-0.9-0.9-1.7-1.1-2.5
	c-0.9-4.2-1.7-8.4-2.6-12.6c-0.2-0.8-0.3-2.3-1-2.1c-3.1,0.8-1.6-1.7-1.4-2.2c0.7-1.6-0.4-2.5-1.2-3.3c-1.2-1.2-2.3,0.1-3.2,0.7
	c-1,0.7-2.3,1.4-1.5,2.9c1.7,3.1,2.4,6.6,4.1,9.7c1.1,2.2,3.5,4.5,1.3,7.4c-0.1,0.1,0.1,0.3,0.1,0.4
	C90.5,427.8,93.6,430.3,94.8,430.4z M221.1,179.4c0.2-1.7-0.5-2.2-1.3-2.5c-1.2-0.4-0.8,0.9-1.2,1.2c-1.1,0.7,0.1,2-0.8,2.9
	c-1.2,1.2-2.1,2.7-2.9,4.3c-0.7,1.3-0.7,2.6,0,2.9c1,0.5,1.8-0.5,2.6-1.5c1.7-2.1,1.5-5.2,3.5-7.1
	C221.2,179.5,221.2,179.1,221.1,179.4z M49.7,294.4c-0.7,1.4-1,3.4-2.1,4.1c-1.9,1.3-1.2,2.7-1.1,4.2c0.1,1.2,0.7,2.3,1,3.4
	C48,302.2,49.5,298.4,49.7,294.4z M168.5,148.2c0-0.5,0-0.8-0.1-1.1c-0.2-0.6,0.4-1.6-0.7-1.6c-0.9,0-1.3,0.6-1.2,1.6
	c0.1,0.9-0.1,1.5-1.1,2c-0.9,0.4-0.7,1.4-0.2,2.1c0.3,0.4,0.6,0.9,1.3,0.4C167.6,150.7,168.9,149.9,168.5,148.2z M36.6,304.2
	c-0.8,3.4-4.2,5.6-4.6,10C35,311.1,37.1,308.3,36.6,304.2z M200.2,347.1c0.2,2.8,0,5-1.8,6.7c-0.5,0.4-0.8,1-0.2,1.6
	c0.2,0.2,0.5,0.1,0.8-0.2c2.4-3,2.6-6.7,2.8-10.3c0-0.3,0-0.8-0.5-0.8c-0.4,0-0.8,0.3-0.8,0.6C200.2,345.6,200.2,346.6,200.2,347.1z
	 M85,422.8c0-0.2,0-0.5,0-0.7c0.2-1.2-0.2-1.8-1.6-1.9c-1.3-0.1-2.2,0.4-2.5,1.5c-0.2,1,0,2.1,1.6,1.6c0.4-0.1,0.2,0.2,0.3,0.4
	c0.3,0.7,0.5,1.7,1.5,1.3C85.3,424.6,85,423.6,85,422.8z M56.3,336.8c-1,2.4-1.8,4.8-3.7,6.7c-0.7,0.7-0.4,2.3,1.2,2.9
	C54.1,343,56.1,340.2,56.3,336.8z M50.4,321.1c-0.2,1.8-0.4,3.6-0.5,5.4c0,0.4,0.3,1.1,1,1c0.5,0,0.8-0.5,0.9-0.9
	c0.1-0.6,0.4-1.4,0.1-1.8C51,323.8,51,322.4,50.4,321.1z M208.8,344.1c1-0.1,0.3-1.6,1.4-1.5c0.7,0.8,0.4,1.9,0.7,2.8
	c0.7-1.5,0.8-2.9-0.6-4c-0.4-0.3-0.7-0.5-1.2-0.1C207.8,342.1,209,343.1,208.8,344.1z M138.7,139.2c0-2.2,0.7-4.4,0.1-7.1
	C138.2,134.8,137.9,137,138.7,139.2z M270.8,379.4c0.5,2.5,0.9,4.6,1.2,6.6C273.7,384.4,273.4,381.6,270.8,379.4z M51.7,337.8
	c1.2-0.9,2.1-1.6,3-2.2c0.7-0.5,0.3-0.9,0.1-1.4c-0.2-0.5-0.7-0.5-0.9-0.1C53.2,335.2,51.7,335.8,51.7,337.8z M172.7,335.7
	c-0.7,0.2-1.9-0.3-1.7,0.5c0.3,1.4,2,0.3,2.9,0.9c0.5,0.4,1-0.1,0.9-0.6C174.5,335.1,173.3,336.1,172.7,335.7z M274.2,378.3
	c1-2.4-0.6-3.1-1.3-4.2c-0.2,0.1-0.4,0.2-0.6,0.3C272.8,375.6,273.4,376.7,274.2,378.3z M112.7,445.5c0.2,0,0.4-0.1,0.6-0.1
	c-0.6-1.8-0.3-3.7-0.6-5.5C112.7,441.8,112.7,443.6,112.7,445.5z M141.5,138.5c0.9-1.4-0.1-2.4,0.5-3.9
	C140.9,135.9,140.9,135.9,141.5,138.5z M211,349.3c0.1,1.1-0.2,1.9,0.5,2.6C211.6,351.1,212.1,350.3,211,349.3z M79.4,166.5
	c-0.3,0.6-0.7,1-0.4,1.8C79.2,167.7,79.8,167.3,79.4,166.5z M206.8,346.7c0.7-0.1,1.3,0.1,1.5-0.7
	C207.7,345.8,207.4,346.3,206.8,346.7z M210.9,348.7c-0.1-0.2-0.3-0.4-0.4-0.5c-0.3-0.2-0.4,0-0.4,0.3c0.1,0.2,0.3,0.3,0.4,0.4
	C210.6,349,210.7,348.8,210.9,348.7z M209,345.3c0.1-0.1,0.2-0.1,0.4-0.2c0-0.1-0.1-0.2-0.1-0.2c-0.1,0-0.3,0-0.4,0.1
	C208.9,345.1,208.9,345.2,209,345.3z M77.5,178.6l0.1,0.1l0-0.2L77.5,178.6z"/>
<path class="st1" d="M171.6,499.8c3.2-11.2,6.2-22.4,8-33.8c0.5-3.1,0.8-6.2,1.3-9.3c0.1-0.6,0-1.6,1.1-1.4c1,0.2,1.1,0.9,1.1,1.8
	c-0.2,2.2-0.5,4.4-0.5,6.6c-0.2,8.1,0.5,16.1,0.8,24.2c0.1,4-0.7,8-0.7,12C179,499.8,175.3,499.8,171.6,499.8z"/>
<path class="st2" d="M254.8,151.6c5.5,4.8,11.6,8.8,18.2,11.9c4.5,2.1,8.4,5.1,11.6,8.9c3.3,3.8,4.3,8.4,4.7,13.2
	c0.5,5.6,0.3,11.3,2.1,16.6c1.6,4.7,2,9.5,1.9,14.2c-0.2,6.6-0.3,13.3-2.4,19.8c-1.2,3.8-1,7.9-1,11.9c0,3.3,0.4,6.7,0.1,9.9
	c-0.5,5-0.9,10.1-1.7,15.2c-0.1,0.6-0.3,1.2,0.2,1.7c0.2,0.2,0.4,0.7,0.3,0.8c-2.6,2.3,0,4.6-0.2,6.8c-0.1,2.1,0.7,4,0.7,6
	c0,1.3,0.1,2.6,1.1,3.6c0.2,0.2,0.4,0.5,0.4,0.9c-0.1,5.3,1.2,10.5,1.5,15.7c0.1,1.9,1,3.8-0.3,5.8c-0.5,0.7,0,2.2,0.1,3.3
	c0.5,4.4-0.4,8.8,0.3,13.4c1,6.2,0.5,12.5-0.3,18.8c-1.4,10.1-2.5,20.3-4,30.4c-1,7-1.8,14-2.6,21.1c-0.2,2,0,3.3,2.1,3.8
	c0.2,0.1,0.4,0.4,0.6,0.5c-0.1,0.5-0.5,0.5-0.7,0.4c-2.9-1-3-0.9-3,2.2c0,0.5-0.4,1.6,0.8,0.5c0.5-0.5,0.5,0.3,0.4,0.6
	c-0.2,0.6-0.7,1.2,0,2c1.1-0.8,1.2-2.2,2.1-3.1c0.4-0.4,0.8-0.8,1.4-0.6c0.5,0.1,0.6,0.7,0.6,1.1c0,1.5,0.2,3-0.3,4.6
	c-0.3,1.2-0.9,2.5-1.2,3.8c-0.6,2.2-2,4.1-4.5,4.8c0-0.6-0.2-1-0.7-1.3c-0.3-0.2-0.7-0.8-0.2-0.9c2.9-0.8,0.3-1.5,0-2.2
	c-0.5-1.3-0.9-2.7-1.6-4c-0.5-0.8-0.6-1.5-1.6-2c-1.2-0.5-0.8-1.5-0.1-2.3c-0.1-1.4,1.5-3-0.4-4.5c-0.3,1.6-2.2,2.9-0.1,4.4
	c-1.6,2-2.9,0.8-4.1-0.5c0.8-0.7,1-1.7,1.3-2.6c0.2-0.6,0.8-1.4,0.3-1.9c-0.5-0.6-1.5,0-2.1-0.2c-1.3-0.6,1.3-1.1,0.2-1.8
	c-0.7-0.4-1.6-0.5-2.4-0.7c-0.9-4.6-0.3-9.3,0.6-13.8c0.3-1.7,0.3-3.9,1.9-5.5c1.2-1.1,0.1-2.9,0.6-4.3c0.3-1-0.3-3.8,2.4-1.7
	c0.1,0.1,0.5,0,0.6-0.2c0.2-0.4,0-0.8-0.4-0.9c-1.5-0.2-1-1.2-0.8-2c-0.7-0.5-0.8,0.5-1.3,0.5c-0.5,0-1.1,0.3-1.5-0.3
	c-0.3-0.5,0.3-0.8,0.4-1.2c0.5-2,2-3.7,1.4-6.1c-0.2-0.6,0-1.1-0.9-1.1c-0.7,0-0.9-0.4-1.2-1.1c-0.5-1.2,0.1-2.5-0.1-3.8
	c-0.3-1.4,1.3-0.9,2.2-0.1c0-1.8,0-3.4,0-5.1c0-0.5,0.3-0.9-0.4-1c-0.1,0-0.3,0-0.5,0c-0.5,0.4,0,0.6,0.1,0.9
	c0.4,1.1,0.1,2.5-0.8,2.8c-0.9,0.4-1.6-0.8-2.2-1.6c-1-1.3-0.6-2.6-0.4-4.1c0.1-0.9-0.2-1.8-0.3-2.8c-0.6-0.1-0.5,0.7-1,0.8
	c-0.6-0.3,0.2-1.4-0.9-1.6c-0.2,1.1-0.7,2.1-0.7,3.2c0,2.2-1.6,1.7-2.8,1.6c-1.5-0.1-1.3-1.2-1.2-2.4c0.4-4.5,0.7-9,1-13.5
	c0-0.4,0.2-0.9-0.3-1.2c-0.7,0.4-0.4,1.1-0.7,1.6c-0.4,0.8-0.5,2-1.8,1.6c-1.2-0.4-1.5-1.5-1.2-2.7c0.1-0.4,0.5-0.8,0.6-1.2
	c0.2-0.7,0.3-1.6-0.5-2c-1.6-0.8-1.2-2.2-1.1-3.4c0.6-5.8,0.6-11.7,0.2-17.5c0-0.6-0.2-1.3,0.3-1.7c0.7-0.6,1.3,0.1,1.9,0.2
	c0.5,0.1,0.9,1.1,1.5,0.4c0.4-0.5,0.1-1.2-0.3-1.7c-1.6-2.2,0.1-4.8-0.8-7.1c-0.3-0.7,0.7-1,1.5-1.1c1.9-0.1,2-1.1,1.6-2.7
	c-0.7-2.9-0.5-5.9-1.8-8.7c-0.1-0.3-0.1-0.7,0-0.9c1.2-2.3,0.3-4.7-0.1-6.9c-0.7-3.5,0.5-6.9-0.1-10.2c-0.9-4.6-0.1-9.2-0.5-13.7
	c-0.5-5.1-0.2-10.2-0.1-15.4c0.1-3.3-0.1-6.6-0.9-9.8c-0.1-0.4-0.1-0.8-0.1-1.1c0-1.9,0.3-3.6-0.2-5.6c-0.7-2.6,1.6-5.7,4.2-6.7
	c1.8-0.7,1.9-2.5,1.9-3.9c0-1.3-0.3-2.6,0.1-3.8c0.2-0.5,0-1-0.4-1.3c-2.2-1.9-2.5-4.5-2.9-7.2c-0.9,0-0.7,0.7-0.7,1.2
	c-0.3,3.5-1,6.8-4.4,8.8c-1.3,0.7-2.1,2.2-3.1,3.4c-0.4,0.5-0.8,1.1-1.3,1.3c-4.2,2-5,5.7-4.8,9.9c0.1,2.4,0.3,4.8-0.2,7.1
	c-0.4,1.6,0.7,3.1,0.1,5c-1.8-3.1-1.7-6.5-2.1-9.8c-0.6-5.3,0.9-10.3,1.8-15.4c1.9-10.2,1.2-20.5,1.1-30.8c0-5.1,0.1-10.2,0.1-15.3
	c0-1.6,0.5-3,0.9-4.5C254.8,160.3,254.8,156,254.8,151.6z M282.1,410.9c1.2-1,0.4-2.8,2-3.4c-0.1-0.2-0.1-0.5-0.2-0.6
	c-0.1-0.1-0.4-0.2-0.6-0.1C281.8,407.4,281.3,409.1,282.1,410.9z M283,322.9c-0.2-1.9-1.2-2.4-2.1-3.2
	C280.7,321.4,282.1,321.5,283,322.9z"/>
<path class="st2" d="M230.4,41.8c0.7,1.4,0.4,2.8,0.2,4.2c-0.1,0.8-0.7,2-1.4,2c-2.7-0.1-2.2,2.2-2.2,3.3c0,2.5-0.5,5.1-0.1,7.3
	c0.5,2.7,0.7,5.4,0.9,8.1c0.3,3.6,0.6,7.3,0.1,10.9c-0.3,2.2,0.7,4.3,0.9,6.5c0.1,2.7,0.3,5.3-1.2,7.7c-0.7,1.1-0.7,2.5-1.7,3.6
	c-0.4,0.5-0.6,1.3-1.3,1.3c-0.9,0-0.6-0.9-0.7-1.5c-0.1-0.5-0.4-0.6-0.8-0.7c-0.1,0-0.1-0.1-0.2-0.1c0.1,0,0.1,0,0.2,0.1
	c-0.1,0.9-0.1,1.9-1.4,1.9c0,0-0.1-0.1-0.1-0.1l0.1,0.1c-0.2,3.2,0,6.5-0.6,9.6c-0.5,3.1-1.8,6-2.5,9.1c1.8-1.1,3-2.8,3.9-4.4
	c1.4-2.5,3.6-4.3,5.6-6.3c0.7-0.7,1,0,1,0.5c0.1,1.2,0.1,2.5-0.1,3.6c-0.2,0.9-0.4,1.8-0.3,2.7c0.3,4-0.5,7.7-1.1,11.6
	c-0.4,2.4,0.7,5.1,1.6,7.5c0.4,1.2,0.7,2.3,0.7,3.5c0,0.8,0,1.6,0.9,1.9c0.9,0.2,1.5-0.4,1.9-1c0.6-1,1.1-2.1,0.7-3.4
	c-0.2-0.9-0.3-1.9-0.5-3.5c2.1,2.1,2.9,4.1,3.5,6.1c1.3,4.3,4.4,7,7.7,9.7c0.8,1.4,0.5,2.9,0.1,4.3c-1.4,4.2-2,8.6-3.7,12.7
	c-3.1,7.7-8.5,12.7-16.6,14.6c-1.8,0.4-1.1,2.2-2.1,3c-0.3-0.4-0.6-0.8-1-1.3c-0.4-0.7-0.5-0.7,0.5-1.2c1.1-0.6-0.3-1.2,0.1-1.7
	c0.2-0.3,0.2-0.8-0.4-0.9c-0.7-0.1-0.7,0.5-0.7,0.9c-0.3,2.5-2.2,2.7-4.1,2.7c-5.1,0-10.3-0.5-15.4-1.1c-2.4-0.3-4.8-1-7.4-1.5
	c1.2,4.5,2.7,8.5,4.1,12.6c0.7,1.9,1.1,3.9,2.1,5.7c0.2,0.4,0.8,2-0.3,2.3c-0.8,0.2-2.2-0.4-2.3-1.6c-0.3-3.4-2.8-5.9-3.1-9.2
	c-0.2-2.1-1.2-3.7-2.3-5.4c-0.6-0.9-0.2-1.9-0.2-2.8c0-1.6-1-2.6-1.6-3.8c-0.2-0.3-0.3-0.6-0.6-0.5c-3,0.6-4.8-1.9-6.6-3.4
	c-7.1-5.8-11.7-13.3-13.6-22.4c-0.3-1.3,0.4-2.4,0.3-3.6c-0.2-2.6-1.9-4.7-3.1-6.8c-2.2-3.7-3.9-7.7-6.7-11
	c-1.5-1.9-3.6-3.1-5.3-4.8c-0.6-0.6-1.2-1.1-1.6-2.1c2.7,0.2,4,2.4,5.8,3.6c0.6,0.4,1.2,1.5,1.9,1c1.3-0.9,3-0.5,4-1.4
	c0.8-0.7,0.3-1.8-0.3-2.5c-1-1-1.5-3.8-3.8-1.2c-0.7,0.8-1.5,0.1-1.9-0.5c-2-3.6-3.7-7.2-4-11.5c-0.2-2.9-0.5-5.8-0.3-8.7
	c0.2-3.1,0.6-6.2,1-9.3c0-0.2,0.5-0.3,0.7-0.4c0.1,0.3,0.2,0.6,0.4,0.9c0,1.7,1.6,1.6,2.6,2.1c2.3,1.2,2.7,2.3,1.3,4.4
	c-0.4,0.6-0.8,1.1-1.2,1.6c-0.1-0.1-0.2-0.2-0.3-0.3c0-0.3,0.2-0.9-0.5-0.6c-0.8,0.4-1.4,0.9-2.1,1.3c-1.5,0.9-1,2.3-0.4,3.2
	c0.9,1.3,1.1-0.2,1.6-0.6c0.2-0.1,0.4-0.2,0.6-0.2c2.3,0.1,3.5-1.5,4.6-3.2c0.3-0.6,0.6-1.1,1.4-0.9c2.2,0.7,4.4,4.8,3.8,7.2
	c-0.2,0.7-0.6,1.4,0.5,1.9c1.9,0.8,3.7,2.1,5.6,2.6c1.8,0.5,2.9,1.4,3.6,3.1c-0.1,0.1-0.1,0.2-0.2,0.2c-0.5,2.6,1.2,5,0.8,7.6
	c-1.2,0.1-0.8-1.2-1.9-1.4c0.8,2.1,1.1,4.1-1,5.5c-0.1-0.1-0.3-0.2-0.4-0.3c0.3-1.8-0.5-3.6-0.3-5.5c0.3-3,0-3.6-1.7-4.7
	c0.2,1.7,0.5,3.3,0.7,4.9c0.1,0.4,0.3,1.2,0,1.2c-1.8-0.5-1.2,0.8-1,1.4c0.6,1.7,0,3.1-0.9,4.3c-2,2.8-2.4,5.9-2.4,9.2
	c0,0.4-0.3,1,0.3,1.2c0.5,0.2,0.7-0.4,1-0.8c0.9-1.1,2-2,3.4-1.7c1.3,0.3,2.4,1.2,2.6,2.6c0.6,3.6,1.6,7,2.4,10.5
	c0.2,0.8-0.5,1.8,0.6,2.5c1.4,1,2,2.5,2.4,4.1c1.6,6.8,4.5,13.2,6.2,19.9c0.3,1.4,1,1,1.5,0.4c0.9-1-0.2-2.2-0.2-3.3
	c0-0.4-0.5-1-0.1-1.4c0.6-0.6,0.7,0.9,1.3,0.5c0.1-1.6-2.3-2.2-1.6-4.3c0.1-0.4-0.7-2.1-1-3.4c-0.9-3.6-2.6-6.9-3.5-10.5
	c-0.4-1.5-0.9-2.4-2.4-2.9c2.1-0.8,1.1-2,0.8-3c-0.5-1.4-0.4-2.9,1.2-3.4c1.4-0.5,3-0.4,4.5-0.5c0.6,0,1.3,0.4,1.7-0.3
	c0.4-0.7-0.2-1.1-0.6-1.6c-0.3-0.3-0.9-0.4-0.6-1.2c3.5-0.2,6.1,1.8,8.8,3.6c0.9,0.6,1.5,1.3,2.4,0c0.4-0.6,1.1-0.4,1.7-0.4
	c0.9,0,1.7-0.4,2.3-1c2.5-2.4,2.5-2.4,4.9-2.7c-0.1-0.7-1.8-0.9-0.7-1.9c2.1-2,3.6-4.3,3.4-7.4c0-0.3,0.4-0.7,0.7-0.8
	c2.5-0.9,3.8-2.8,4.4-5.3c0.2-1-1.3-2.9-2.3-2.6c-3.3,0.9-6.6,0.4-9.9,0c-1.4-0.1-2.8-0.7-4.1,0.5c-0.7,0.7-1.7,0-2.3-0.5
	c-1-0.8-1.8-1.8-3-3c5.2-0.8,9.5-3.2,14.3-3.6c0.6,0,1-0.3,1-1c0.1-1.6-1.3-3.1-2.9-3.1c-1.3,0-2.6,0.1-3.9,0.1
	c-2.4,0-4.4-1.2-6.1-2.7c-1.4-1.2-1.2-2.1,0.7-2.3c4.3-0.4,8.5-0.8,12.7-1.9c0.5-0.1,1.1,0,1.6,0.2c0.8,0.2,1.3-0.2,2-0.3
	c0.3-0.1,0.5-0.4,0.4-0.7c-0.1-0.2-0.3-0.4-0.4-0.4c-1.4,0.4-2.1-0.7-3.1-1.1c-1-0.5-2.4-1.3-3.8-0.3c-1.7,1.3-3.8,0.9-5.1-0.8
	c-0.4-0.5-0.9-0.7-1.4-0.2c-1.6,1.5-3.5,0.5-5.5,1.4c0.7-2,2.7-2.3,3.2-4c-1.3-0.2-2.1,0.7-3.2,0.8c0.7-2.8,4-3,5.2-5.3
	c0,0,0.1,0,0.2,0c0.7,0,1.6,0.7,1.9-0.4c0.2-0.9-1.1-0.8-1.3-1.6c-0.2-0.9-1.1-0.6-1.8-0.6c-1.2,0-1.9-0.2-2.5-1.5
	c-0.4-0.9-1-2.4-2.1-2.1c-1.4,0.4-2.7,1.4-3.3,3c-0.5,1.2-0.2,2.3,0.5,3.3c0.6,0.8,1.5,1.4,1.3,2.5c-0.3,1.6,0.7,2.1,1.8,2.6
	c-0.4,1.4-1.8,1.8-2.7,2.7c-1.6,1.7-1.2,4.8,0.7,5.6c0.6,0.3,1.2,0.6,1.3,1.2c0.1,0.7-0.6,1.1-1.1,1.3c-0.6,0.3-1.2,0.8-2,0.4
	c1-2.1-1.1-3.4-1.3-5.4c-0.3-3.4-3.5-5.7-4.6-9c-2.4,0.1-2.2-2.2-3-3.5c-0.2-0.3-0.3-0.6-0.5-0.8c-2.2-2.6-2.8-6-4.7-8.7
	c-0.3-0.5-0.3-1.3-1-1.3c-1-0.1-1,1-1,1.5c-0.1,1.1,0.1,2.3-0.2,3.4c-0.4,1.3-1.6,1.9-2.7,1.7c-1-0.2-0.5-1.4-0.4-2.2
	c2.5-0.8,2.7-1.2,1.9-3.7c-0.9-2.9-2.2-5.7-1.5-8.9c0.4-1.4-1.2-1.8-1.5-3.1c-0.4-2.3,0.1-4.9-1.2-6.9c-1.6-2.5-2.2-5.5-3.6-8.1
	c-0.5-0.9-0.8-1.8-0.4-2.8c1.2-0.2,2.2,0,3.1,1.7c0-1.7-0.1-2.9,0-4.1c0.1-1.8,2.3-5.4,3.2-5.1c2.2,0.7,3.6-0.6,5.3-1.5
	c1.5-0.8,3-1.3,4.9-1.2c2.6,0.1,5.3,0.2,8-0.3c1.6-0.3,3.1-1.3,4.7-0.9c2.4,0.7,3.9-0.6,5.5-2c0.4-0.3,0.6-1.2,1.2-0.9
	c1.4,1,2.8,0.2,4.2,0.4c2.4,0.3,5.4,0.1,7.1-0.8c1.7-0.9,3.2-0.2,4.8-1c2.3-1.1,4.7,1.1,5.6,3.5c1.1,3,3.4,4.3,5.9,5.5
	c0.8-1.1-0.4-2.6,0.8-3.5c0.6,1.6,0.7,3.1,0.1,4.7C230,41.3,229.8,41.6,230.4,41.8z M210.9,62.3c-0.3-0.1-0.5-0.1-0.7,0.2
	c0,0,0.1,0.2,0.1,0.2C210.6,62.7,210.8,62.6,210.9,62.3c0.1,0,0.1,0,0.2-0.1c0,0,0-0.1,0-0.1C211,62.1,211,62.2,210.9,62.3z
	 M223.3,171.6c0.9,0.4-0.2,1.1,0.3,1.6c0.4-0.6,0.8-1.3,1.1-1.9C223.9,169.5,223.9,171.9,223.3,171.6z M204.6,85.6
	c1.3,0.1,2.5-0.4,3.6-1c0.6-0.4,1-0.8,0.7-1.4c-0.3-0.6-1-0.5-1.4-0.2c-1.1,0.7-2.4,1.2-3.2,2.4c-0.1,0.2-0.1,0.3-0.2,0.5
	C204.3,85.7,204.4,85.6,204.6,85.6z M187.9,72.6c-0.1-0.1-0.2-0.1-0.2-0.2c-0.4-1.4-1.3-0.3-1.9-0.3c-2.5,0-3.5-0.9-3.5-3
	c2.6,2.8,3.5,2.8,5.9-0.4c0.5-0.7,0.8-0.3,1.3-0.1c1.9,1,3.9,1.8,5.9-0.3c0.2,2.3,0.1,4.2-0.8,6.1c-0.8,1.7-0.9,3.5-0.5,5.4
	c0.1,0.5,0.2,0.9,0.8,1c0.4,0,0.9-0.2,0.9-0.5c0.2-1.9,2-3.4,1.7-5.4c-0.6-3.7,0-7.5-0.4-11.3c-0.1-0.7-0.3-1.7-1.6-1.3
	c-1.4,0.4-2.7,0-3.7-1.2c-0.5-0.7-1.3-0.9-2.1-0.9c-3.7-0.2-6.7-2.6-10.1-3.5c-0.4-0.1-1-0.3-0.9-0.9c0-0.7,0.7-0.7,1.2-0.9
	c1.3-0.5,2.8-0.3,4-1.2c-0.6-0.6-1-0.6-1.5-0.6c-1-0.1-2.1-0.2-2.3-1.2c-0.2-1.2,0.9-1.4,1.8-1.6c0.5-0.1,1.2-0.2,1-0.9
	c-0.2-0.8-1.1-0.7-1.6-0.4c-1.1,0.5-2.1,1-3.3,0.8c-0.5-0.1-1.2,0.1-1.3-0.6c-0.1-0.7,0.6-0.8,1.1-1c0.4-0.1,0.8-0.1,1.1-0.2
	c0.7-0.1,0.9-0.6,0.9-1.1c0-0.5-0.1-1-0.6-1.1c-1-0.3-2.6,0-1.6-2c0.2-0.4-0.7-0.4-1.1-0.5c-1.8-0.2-2.8,1.1-3.9,2.1
	c-0.3,0.3-0.3,1,0,1c2.2,0,0.7,1,0.5,1.6c-0.1,0.4-0.3,1-0.3,1.1c1.5,0.8,0.8,1.9,0.8,3.1c0.1,3.1,0,6.3,0.7,9.4
	c0.2,1.1,0.3,2.4-0.1,3.3c-1.7,3.6,0,6.7,1,10.6c0.4-1.7,1-3.2,2-1.5c1.6,2.7,3.7,2.4,6.1,1.8c3.1-0.8,4.9-1.9,5.6-3.4
	C188.8,72.3,188.4,72.5,187.9,72.6z M222,57c0.1,0,0.5-0.1,1-0.2c-0.1-0.3,0-0.6-0.2-0.8c-2.3-2.6-6.7-3.3-9.9-1.5
	c-2.6,1.5-5.3,3.1-8.3,3.7c-1.3,0.3-1.5,0.1-1.2,1.5c0.6,2.8,0.5,2.8,3.3,2c1-0.3,1.9-1,2.9-1.4c1.9-0.7,3-2.5,4.9-3.2
	C216.8,56.4,219.2,56.5,222,57z M206.3,65.5c0,1.3-0.1,2.2,1.1,2.1c0.8-0.1,1.9,0.8,2.1-0.9c0.1-0.9,0.6-2.1,1.9-1.2
	c2.7,2.1,3.5,2,5.4-0.6c0.5-0.6,0.9-1.3,1.8-0.5c0.2,0.2-0.5,1.1,0.5,0.7c0.4-0.2,0.8-0.5,0.9-0.9c0.1-0.3-0.3-0.6-0.7-0.8
	c-2.3-1-4.7-0.8-7-0.2c-0.8,0.2-1.7,0.7-2.4,0.6C208,63.3,206.4,64.1,206.3,65.5z M222.7,36.3c-2,1.6-0.4,3.7-1.4,5.2
	c-0.2,0.3,1.2,0.4,1.9,1C223.1,40.5,222.5,38.6,222.7,36.3z M210.3,69.5c1.5-1.5,3.6-0.4,5.3-1.4C213.9,68.9,211.6,66.6,210.3,69.5z
	 M163.8,127.8c-0.2-1.8-0.6-3.3-2.5-4.1C162.1,125,162.9,126.4,163.8,127.8z M235.2,144.2c-1.5,1.1-2,2.6-1.3,4.4
	C233.5,146.8,235.3,145.8,235.2,144.2z M200.6,92.5c0.8,0.1,1.6,0.3,2.3,0.4c0.5,0,0.8-0.4,0.9-0.9c0-0.3-0.1-0.6-0.3-0.8
	c-0.7-0.7-0.6,0.3-0.9,0.5C202.1,92.1,201.2,91.6,200.6,92.5z M236.5,137c-1.2,1.1-1.1,2.5-1.3,4.3
	C236.7,139.9,236.5,138.4,236.5,137z M223.9,167c-0.7,0.7-1,1.2-0.7,1.8c0.1,0.1,0.7,0.2,0.8,0.1C224.3,168.3,224.2,167.8,223.9,167
	z M233.3,149.2c-0.8,0.6-0.8,1.2-0.4,2C233.3,150.5,233.4,150,233.3,149.2z M225.6,58.8l-0.1-0.1l0,0.2L225.6,58.8z M225,57.8
	l-0.1,0.1l0.1,0L225,57.8z"/>
<path class="st2" d="M283.9,422.5c-0.1,4.3-1,8.5-1.5,12.7c-0.6,4.7-1.4,9.4-1.8,14.2c-0.2,2.3-0.7,4.5-2.5,6.3
	c-0.9,0.9-1.8,2.1-0.3,3.4c0.3,0.2,0.5,0.5,0.3,1c-1.4,2.4-1.8,5.2-4.1,7.1c-2,1.7-2.6,4.6-5.2,5.9c-1.4-1.6-2.3-3.3-2-5.6
	c0.2-1.3-0.8-0.4-1.2-0.5c-3.3-0.8-4.5,0.4-3.8,3.7c0.2,1-2.4,3.2-3.6,2.8c-3.7-1.3-5.2,2-7.6,3.4c-0.1,0.1-0.2,0.4-0.2,0.6
	c1.3,2.7-1.3,3.1-2.6,3.6c-2,0.7-4.2-0.9-4.5-2.6c-0.4-1.9,1-3.9,3.1-4.5c3.4-1.1,6.2-3,8.4-5.9c1.4-1.9,3.2-3.5,5.2-4.9
	c0.3-0.2,1.1-0.1,0.7-0.8c-0.7-1.5,0-2.9,0.5-4.2c1.1-3,1.6-6,1.1-9.2c-0.1-0.5,0.1-1,0.5-1.2c2-0.9,1.9-2.4,1.4-4.2
	c-0.8-2.8-1.2-5.7-1.8-8.7c-1.1,0.3-1.2,1.4-1.5,2.3c-0.7,2.4-1.6,4.6-2.9,6.7c-1.4,2.3-1.5,5.1-2.1,7.7c-0.7,2.9-2,5.5-3.7,7.9
	c-1.4,2-4.5,2.3-6.4,0.9c-0.7-0.5-1.4-1.3-0.9-2.1c0.6-1.1,1-2.6,2.6-2.7c0.8-0.1,1.6,0,1.2-1.3c-0.3-0.9,0.4-1.1,1-1
	c1.5,0.1,1.7-1.6,2.9-2.1c0.5-0.2-0.2-0.5-0.4-0.8c-0.8-1.4-3.6-2.3-0.8-4.4c0.3-0.2-0.1-1.4-0.7-1.8c-1.5-0.8-0.9-1.8-0.4-2.9
	c0.3-0.6,0.8-1.2,0.9-1.9c0.1-4.5,2.8-7.9,4.9-11.6c0.9-1.6,1-3.7,2.5-5c0.1-0.1,0.1-0.3,0.1-0.4c-1.7-3.4,1.6-4.2,3.2-5.8
	c1.6-1.6,3.3-3.1,3.7-5.5c0.1-0.9,0-2.2,1.1-2.2c1.4,0,3.1-0.6,4.1,1c0.2,0.3,0,0.8,0.7,0.5c3.2-1.7,4.2,1.8,6.4,2.6
	c0.2,3.4,3.5,5.4,4.1,8.6C281.9,422.9,282.7,422.8,283.9,422.5z M269.8,460.1c1.2-1.5,1.6-2.9,2.7-3.8c0.6-0.5,0.7-1.6,1-2.5
	c0.1-0.3,0-0.9-0.3-1c-0.6-0.3-0.8,0.2-1,0.6C271.2,455.4,270.2,457.4,269.8,460.1z"/>
<path class="st2" d="M188.7,225.5c-1.1-1.9-1.6-4-0.7-6c0.6-1.4-0.6-3.4,1.3-4.3c-1.5-0.3-0.2-1.6-0.8-2.2c-0.9-0.9-1.8-0.9-2.9-0.1
	c-0.5,0.3-1,0-1.4-0.4c0-1.7,2.6-1.3,2.5-3.1c-0.1-1.1-0.2-2.3-0.3-3.4c0.4,0,0.8,0,1.2-0.4c0.5-0.7,1-0.5,1.1,0.4
	c-0.9,1.4-0.4,2.8-0.3,4.2c0.1,0.7,0.3,1.7,1.2,1.8c1,0.2,1.5-0.7,1.9-1.4c0.3-0.4,0.4-1,0.6-1.6c0.7,0.5,1.2,0.9,1.7,1.3
	c0.2-1.6,0.2-1.7-1.1-1.8c-1.2-0.1-1.9-0.5-1.6-1.8c0.1-0.5,0.2-1-0.4-1.2c-0.5-0.2-1.5,0-1.2-0.9c0.2-0.8,1.1-1.3,1.8-1.2
	c2.1,0.2,2.2-1.1,2.3-2.5c0-1.4,0.6-1.9,2-1.8c1.6,0.1,3.2,0,4.8,0.1c1,0.1,2.1,0.2,1.7,1.8c-1.9,1.5,0,2.7,0,4.6
	c1.1-1.6,0.3-3.1,1.3-4.1c-0.2-0.7-1.3-1.7,0-2.2c1-0.4,2.4-1.3,3.2,0.3c0.6,1.1,1.1,1,2.2,1c3.2,0.1,6.4,0.6,9.2,2.2
	c0.7,0.4,1.4,1,1.5,1.9c-1.1,0.5-0.4,1.5-0.5,2.2c0,2.7-1.2,4.4-3.3,4.6c0.4,0.9,0.8,1.8,1.3,2.7c1,2.2,2,4.4,1.6,6.8
	c-0.4,1.9,0.1,3.3,0.9,4.8c0,0.9-0.2,1.9-1.2,1.8c-0.8,0-0.5-1.1-0.7-1.7c-0.8-2.6-0.8-5.5-4.2-6.8c-1.6-0.6-0.3-2.4-0.4-3.7
	c-0.4-1.3,0.3-2.9-1.5-3.5c0.6,1.5-0.2,2.9-0.8,4.3c-1.4,1.6-2.9,1.3-4-0.3c-0.7-1-1.5-1.3-2.6-1.2c-0.9-0.3-0.2-1.2-0.5-1.5
	c-1-0.9,0.3-3-1.7-3.2c-0.2,1.9,1.1,3.7,0.1,5.5c-1.5,0.4-2.8,1.7-4.5,1c-0.6,0.2-1.3,0.3-1.9,0.1c-0.9-1.3-1.3-2.7-1.6-4.2
	c-0.1-0.4-0.2-1-0.8-0.8c-0.5,0.1-0.7,0.6-0.7,1c-0.8,0.8,0,1.6,0.1,2.3c0.2,1.3,1.1,2.5,0.2,3.9c-0.5,0.4-1,0.9-1.2,1.5
	c-0.5-0.4-1-0.8-1.6-1.3C189.3,221.4,189.9,223.6,188.7,225.5z M208.3,215.2c-0.3-3.7,0.3-7.6-1.9-11
	C207.3,207.8,206.9,211.6,208.3,215.2z M213.7,205.6c-0.5-0.3-1.4-0.1-1.1,0.4c0.7,1.2,2.4,0.6,3.4,1.4c0.2,0.2,0.7-0.2,0.6-0.4
	C216,205.7,214.9,205.5,213.7,205.6z M197.8,209.4c0.4,1.5,0.9,3,1.3,4.5C199.3,212.2,198.9,210.7,197.8,209.4z M197.3,205.7
	c0.9-1.5,0.1-3,0-4.5C197.3,202.8,197.3,204.2,197.3,205.7z"/>
<path class="st2" d="M12.2,365.2c-1.2-1.6-1-3.4-0.6-5.1c0.9-3.3,2.1-6.6,3.7-9.6c2.7-4.9,5.1-10,6.3-15.3c1.6-7.3,4.1-14,7.4-20.7
	c2.8-5.6,4.1-11.9,6.8-17.6c1.7-3.5,3.3-6.9,4.8-10.4c0.7-1.7,1.1-3.5,2-5.1c0.4-0.6,0.5-1.5,1.4-1.7c0,0.1,0.1,0.1,0.1,0.2
	c2,3.8,0.8,7-1.7,10.2c-3.2,4.1-5.3,8.9-7.5,13.6c-0.3,0.6-0.1,1.6-1.2,1.5c-1.4,1.4-2.3,3-1.7,5.1c-0.9,3.8-3.2,7-5.3,10.6
	c4.4-0.9,7.9-2.4,9.5-6.4l0,0c0.2,4-1.5,6.8-5,8.8c-3.1,1.9-5.1,4.8-5.8,8.5c-0.1,0.4-0.8,1,0,1.3c0.5,0.1,1.4,0.5,1.6-0.3
	c0.7-1.9,3-1.9,3.9-3.5c0.1-0.2,0.4-0.4,0.5-0.4c1.9,0.5,3.7-0.6,5.5-0.7l0,0c-0.8,1.7-2.3,2.2-4,2.7c-3.6,1-6.7,3.1-9.1,6
	c-1.5,1.8-1.2,4.4-1.7,6.6c-0.8,3.5-1.5,7-3.5,10.1c-0.3,0.4-0.2,1.1-0.3,1.8c1.4-0.2,1.4-1.7,3.2-2c-1.4,1.6-2.1,3-3.9,3.2
	c-0.9,0.1-1.5,0.2-1.8,1.3c-0.4,1.4-1.2,4.6-1.2,6.8c0,1,0,1.9,0,3.4c-0.5-1.5-0.7-2.5-0.5-3.6c0.1-0.6,0.5-1.3-0.3-1.6
	c-0.8-0.3-1,0.6-1.3,1C12.5,364.3,12.4,364.8,12.2,365.2z"/>
<path class="st1" d="M163.5,179.3c0-0.2-0.1-0.4-0.1-0.6c0.2-0.6,0.2-1.2-0.3-1.8c-0.4-2.3-0.8-4.7-1.2-7c-0.7-4.1-2.4-7.7-5.4-10.7
	c-0.9-0.9-1.9-2.1-2-3.5c1.6,0.5,2.5,1.9,3.6,3.1c0.3,0.3,0.5,0.7,0.9,0.4c0.2-0.1,0.2-0.5,0.2-0.8c-0.4-3-3.7-5.9-6.9-6
	c-0.3-0.9-0.7-1.8-1-2.8c1.4,0,2.5-0.5,3.9-1.6c-1.8-0.3-3.1-0.6-4.3,0.3c-1.1-1.9-1.7-4.1-2.5-6.1c-1.6-4.2-3.3-8.4-6.6-11.7
	c3-1.9,5.2-1.4,8.7,1.8c2.1,2,3.6,4.6,5.5,6.8c5,5.6,5.6,12.5,6,19.5c0.2,2.9-0.2,5.8,1.6,8.6c0.9,1.3,0.3,3.6,0.5,5.4
	c1.5,11.9,2.4,23.8,1.9,35.8c-0.6-0.7-0.3-1.5-0.3-2.2c-0.1-3.8,0.3-7.6-0.6-11.2c-0.9-3.6-1.1-7.2-1-10.9
	C164.1,182.4,164.2,180.8,163.5,179.3z"/>
<path class="st2" d="M105.6,399.1c-0.6,2.2-0.3,4.4-1.6,6.3c-0.6,0.9-0.1,2.1-0.2,3.2c-0.1,8.8,3.3,16.4,8.5,23.3
	c0.8,1,1.5,2.2,2.1,3.3c0.6,1,0.7,2.1,0.1,3.1c-0.3,0.5-0.8,1-1.5,0.7c-0.7-0.3-1.4-0.7-0.9-1.5c0.8-1.3-0.2-1.8-1-2.4
	c-2.6-1.8-5.5-3.3-5.7-7.1c-0.1-0.8-0.8-1.9-2.4-1.9c-1.4,0-2.4-2.1-4.2-1.3c-0.4-1.1-0.9-2.2-0.4-3.4c1.3-3.3-0.2-6.5-1.1-9.4
	c-0.6-1.8-0.6-4.3-2.4-5.9c-0.3-0.3-0.3-0.7-0.8-1c-1.9-1.1-2.1-2.4-0.3-3.6c3.3-2.2,7.1-3.2,10.9-4.2
	C106.3,396.9,105,398.7,105.6,399.1z"/>
<path class="st2" d="M57.5,214.3c0-0.5,0-0.9,0.1-1.3c3.7-11.2,7.3-22.5,12.2-33.3c1.3-3,2.4-6.1,3.6-9.2c0.3-0.7,0.7-1.3,1.4-1.9
	c2.4-1.9,3-5,4-7.7c1.6-4.2,4.2-7.8,6.3-11.7c0.2-0.4,0.6-0.9,1.2-1c0.6,1.5,0.3,2.7-0.7,3.9c-0.8,1-0.3,1.3,0.7,1.1
	c0.1,0,0.1,0.1,0.2,0.1c-1.7,2.4-4.2,4.2-5.4,7.1c0.9-0.7,1.7-0.7,2.6-0.3l0,0c-0.1,0.7-1.2,1.2-0.6,2c0.5,0.6,1.2,0,2.2-0.4
	c-3,8.4-4.5,17-8.5,24.8c2.2-7,3.7-14.2,6.2-21.1c-1.7,1.7-2.5,3.8-2.7,6.4c-1.1-3.5,1.4-6,1.6-8.9c0.2-0.1,0.4-0.1,0.2-0.4
	c-0.1,0.1-0.2,0.2-0.2,0.3c-1.2,1.4-3,2.1-3.9,3.9c-1.9,3.8-3.8,7.5-5.2,11.4c-0.8,2.4-2.8,4.3-3.2,7c-0.1,0.7-0.3,1.4,0.8,0.7l0,0
	c0,1.4-1.3,2.6-0.9,4.1c-0.1,0.1-0.2,0.3-0.4,0.4c0.1,0.1,0.2,0.1,0.2,0.2c0.1-0.2,0.1-0.4,0.2-0.6c2.4-3.8,4.1-7.8,5.7-12.2
	c1,1.1,1.6,1.7,0.8,3.4c-2.7,6-6.5,11.5-9.5,17.3C63.8,204.1,61.8,209.9,57.5,214.3z M62,201c-0.1-0.1-0.1-0.3-0.2-0.3
	c-0.3,0-0.4,0.1-0.3,0.4c0,0.1,0.2,0.2,0.2,0.3C61.9,201.2,61.9,201.1,62,201z M61.3,202c0,0-0.1,0.1-0.1,0.1c0.1,0.2,0.2,0.2,0.3,0
	c0,0,0-0.1-0.1-0.2C61.4,202,61.3,202,61.3,202z"/>
<path class="st1" d="M257.1,262.1c0.6,8,1.4,16.1,1.7,24.1c0.3,6.1,0.1,12.2-0.1,18.4c-1.1-2-1-4.3-1.5-6.4
	c-1.2-5.1-2-10.3-3.2-15.5c-1.8-7.4-3.3-15.1-2.7-22.7c0.4-4.9,1-10.1,3.9-14.5c0.5-0.8,0.2-2.6,1.5-2.3c1.3,0.3,0.6,2,0.5,3.1
	c-0.2,4-0.5,8-0.2,12C256.6,259.5,256.5,260.8,257.1,262.1z"/>
<path class="st2" d="M108.2,402.4c-0.1-2.3,2.8-5.7,4.9-5.7c1.2,0,1,1.1,1,1.7c0.2,2.3,0.6,4.6,1.6,6.7c1.4,2.9,2.6,5.8,3.1,9.1
	c0.3,2,1.6,3.8,3,5.4c0.8,0.9,1.8,2,0.8,3.3c-0.9,1.3-2.4,0.4-3.2,0c-3-1.4-5.6-3.8-7.1-6.7c-1-2.1-2.7-3.9-3.1-6.3
	C109,407.3,108.6,404.8,108.2,402.4z"/>
<path class="st2" d="M94.8,430.4c-1.2,0-4.3-2.6-4.6-3.9c0-0.1-0.2-0.4-0.1-0.4c2.1-2.9-0.2-5.2-1.3-7.4c-1.6-3.1-2.4-6.6-4.1-9.7
	c-0.8-1.5,0.5-2.2,1.5-2.9c0.9-0.7,2-1.9,3.2-0.7c0.8,0.8,1.9,1.6,1.2,3.3c-0.2,0.6-1.8,3,1.4,2.2c0.7-0.2,0.8,1.3,1,2.1
	c0.8,4.2,1.7,8.4,2.6,12.6c0.2,0.9,0.8,1.7,1.1,2.5C97,429.4,96.8,430.5,94.8,430.4z"/>
<path class="st2" d="M42.2,270.4c-1.2-2.8,0.2-5.4,0.6-8c1.1-6.3,4.1-12.1,5.4-18.3c0.3-1.2-0.4-2.6,0.7-3.7c3.4-2.2,6-5.3,8.3-8.5
	c1.5-2.2,3.7-3.5,5.6-6.1c-0.1,1.6-0.7,2.1-1.2,2.8c-0.8,1.1-1.5,2.3-1.8,3.7c-0.1,0.4-0.2,1.2-0.7,0.9c-1.8-1.1-2,0.7-2.7,1.4
	c-4.1,4.7-6.5,10.4-7,16.4c-0.5,5.3-2.1,9.6-5.7,13.4C42.1,265.9,42.3,268.2,42.2,270.4z"/>
<path class="st1" d="M165.6,212.5c-0.4,7.7-0.3,15.5-3.6,22.7c0.4-2.7-1.2-3.2-3.3-3.2c-0.3-4.3,0.8-8.5,1.1-12.7
	c0.1-2.3,0.5-4.5,0.8-6.8c0.5-0.8,0.8-1.8,2-0.7C163.4,212.5,164.5,212.5,165.6,212.5z"/>
<path class="st2" d="M154,274.6c0.6,8-2.3,15.2-4.5,22.7c-1.2,4.1-2.4,8.2-3.6,12.3c-0.4,1.3-1,2.6-1.6,3.8
	c-0.2,0.5-0.6,0.8-1.1,0.6c-0.6-0.3-0.1-0.6,0-1c1.2-4.6,2.7-9.1,3.5-13.8c1.5-8.6,3.7-17.1,4.7-25.8c0-0.2,0.3-0.3,0.4-0.5
	C151.4,274.6,152.7,274.5,154,274.6z"/>
<path class="st2" d="M158.7,232c2.1,0,3.8,0.5,3.3,3.2c-0.1,5-1.4,9.9-2.3,14.8c-0.4,2-0.6,4.1-1.5,6c-0.3-0.6,0.4-1.6-0.8-1.8
	c-1-0.2-1.9-0.6-2.8-0.9c1.1-6,2.2-12,3.2-18C157.9,234.1,158.5,233.2,158.7,232z"/>
<path class="st2" d="M165.6,212.5c-1.1,0-2.2-0.1-3-0.8c-1.3-1.1-1.6-0.1-2,0.7c0.6-3.9,1.1-7.8,1.8-11.7c1.3-6.5,1.2-13.1,1-19.7
	c0-0.6-0.3-1.2,0.1-1.8c0.8,1.5,0.7,3.1,0.6,4.7c-0.1,3.7,0.1,7.3,1,10.9c0.9,3.7,0.5,7.5,0.6,11.2c0,0.7-0.3,1.5,0.3,2.2
	C165.9,209.7,165.7,211.1,165.6,212.5z"/>
<path class="st1" d="M154.6,253.3c0.9,0.3,1.8,0.7,2.8,0.9c1.3,0.2,0.5,1.2,0.8,1.8c-0.8,3.1-2,6.1-3.1,9.2c-1,2.9-0.8,6.2-1.2,9.4
	c-1.3,0-2.6,0.1-2.3-1.9C152.8,266.2,153.9,259.8,154.6,253.3z"/>
<path class="st2" d="M98.1,136.7c-3.6-4.2-4.1-9.1-3.1-14.2c0.7-3.5,2.6-6.7,4.3-9.9c0.1-0.2,0.5-0.2,0.7-0.3c0,3-0.3,6-1.1,8.9
	c-0.9,3.1-0.5,6.4-0.8,9.8c-1.5-1.7-0.7-4-2.4-5.7c-0.7,2.4-0.4,4.4,0.6,6.3C97.1,133.2,97.6,135,98.1,136.7z"/>
<path class="st2" d="M123.4,90.6c3.8-2.1,7.9-3.1,12-4.4c6-1.9,12.1-3.2,18.2-4.5c0.2,0.4,0.5,0.7,1.1,0.9c-1.7,0.7-3.1,1.2-4.1,2.4
	c-0.6,0.6-1.3,2.3-2.4,0.4c-0.1-0.1-0.5-0.2-0.6-0.1c-1.7,1.7-3.3,0.4-5.1,0.1c-2.5-0.4-4.9,0.9-7.3,1.7
	C131.3,88.5,127.5,89.9,123.4,90.6z"/>
<path class="st1" d="M219.6,225.9c-0.8-1.5-1.3-3-0.9-4.8c0.5-2.4-0.6-4.7-1.6-6.8c-0.4-0.9-0.8-1.8-1.3-2.7
	c2.1-0.2,3.3-1.9,3.3-4.6c0-0.8-0.7-1.7,0.5-2.2c0.9,2.6,1.9,5.2-1.2,7.2c-0.7,0.5-0.1,1.4,0.2,2.1
	C220,217.9,220.9,221.8,219.6,225.9z"/>
<path class="st2" d="M221.1,179.4c0.1-0.3,0.1,0.1-0.1,0.2c-2,1.9-1.8,4.9-3.5,7.1c-0.8,1-1.7,2-2.6,1.5c-0.7-0.3-0.7-1.6,0-2.9
	c0.8-1.6,1.7-3.1,2.9-4.3c0.9-0.9-0.3-2.2,0.8-2.9c0.5-0.3,0.1-1.6,1.2-1.2C220.6,177.3,221.3,177.7,221.1,179.4z"/>
<path class="st2" d="M207.5,195c2-0.4,2.5-2.4,3.5-3.7c0.8-1,2-1.3,2.8-2.2c0.3-0.4,1.1-0.4,1.5,0c0.5,0.4,0.2,1-0.1,1.4
	c-1.1,1.7-2.1,3.5-4.1,4.2c-0.7,0.2-0.7,0.9-1.1,1.4c-0.8,1.3-2.3,1.1-3.5,1.2c-0.9,0.1-0.8-0.7-0.8-1.3
	C206.2,195.5,206.4,194.4,207.5,195z"/>
<path class="st1" d="M272.5,401.8c0.8,0.2,1.7,0.3,2.4,0.7c1.1,0.6-1.5,1.2-0.2,1.8c0.6,0.3,1.6-0.3,2.1,0.2
	c0.5,0.5-0.1,1.3-0.3,1.9c-0.3,0.9-0.5,1.9-1.3,2.6c-0.1-1.2,0-1.1-0.9-0.8c-1.3,0.5-2.3,0-3.2-0.9c0.6-1.5,0.5-3.2,1.3-4.7
	C272.4,402.4,272.5,402.1,272.5,401.8z"/>
<path class="st2" d="M112.5,96.9c1.1-1.6,2.7-2.6,4.6-3.2c-2.4,2.9-3.4,6.4-4.7,9.8c-1,0-0.4-1-1-1.2c-1,0.7-1.2,2.1-2.4,2.7
	c-0.1-0.1-0.2-0.2-0.3-0.3c1.2-2.4,2.9-4.4,4.5-6.6C113.9,97,113.4,96.9,112.5,96.9z"/>
<path class="st2" d="M272.3,402.6c-0.8,1.4-0.7,3.1-1.3,4.7c-0.3-0.2-0.1-1.1-0.5-0.6c-0.9,1-1.7,0.5-3,0.4c1.6-1,1.4-2.5,1.7-3.8
	c0.2-0.7,0-1.5,1.3-1.8C271.9,401.2,271.7,402.3,272.3,402.6z"/>
<path class="st2" d="M49.7,294.4c-0.3,4-1.7,7.8-2.2,11.7c-0.4-1.1-0.9-2.3-1-3.4c-0.1-1.4-0.8-2.9,1.1-4.2
	C48.7,297.8,49.1,295.8,49.7,294.4z"/>
<path class="st2" d="M168.5,148.2c0.4,1.6-0.8,2.5-2.1,3.4c-0.7,0.5-1,0-1.3-0.4c-0.5-0.8-0.6-1.8,0.2-2.1c1-0.4,1.2-1.1,1.1-2
	c-0.1-1,0.3-1.6,1.2-1.6c1.1,0,0.6,1,0.7,1.6C168.4,147.4,168.4,147.7,168.5,148.2z"/>
<path class="st2" d="M152.3,152.4c3.2,0.1,6.4,3,6.9,6c0,0.3,0,0.7-0.2,0.8c-0.4,0.3-0.6-0.1-0.9-0.4c-1.1-1.1-2-2.6-3.6-3.1
	c0,0,0.1,0,0.1,0c-0.2-0.2-0.4-0.4-0.5-0.5c0,0,0.1,0.1,0.1,0.1c-0.1-0.3-0.3-0.2-0.5-0.1C153.5,154.1,151.6,153.8,152.3,152.4z"/>
<path class="st2" d="M36.6,304.2c0.5,4.1-1.6,6.9-4.6,10C32.4,309.8,35.8,307.6,36.6,304.2z"/>
<path class="st1" d="M188.7,225.5c1.2-1.8,0.6-4.1,1.3-6.2c0.6,0.5,1.1,0.9,1.6,1.3c-0.9,2-1.3,4.1-1.7,6.3
	C189.1,226.8,189.2,225.9,188.7,225.5z"/>
<path class="st2" d="M200.2,347.1c0-0.5,0.1-1.5,0.2-2.4c0.1-0.4,0.4-0.6,0.8-0.6c0.6,0,0.5,0.5,0.5,0.8c-0.2,3.6-0.3,7.3-2.8,10.3
	c-0.2,0.3-0.5,0.4-0.8,0.2c-0.6-0.6-0.3-1.2,0.2-1.6C200.2,352,200.3,349.9,200.2,347.1z"/>
<path class="st2" d="M85,422.8c0.1,0.8,0.4,1.8-0.7,2.2c-1,0.3-1.2-0.6-1.5-1.3c-0.1-0.2,0.1-0.5-0.3-0.4c-1.5,0.5-1.8-0.5-1.6-1.6
	c0.3-1.1,1.2-1.6,2.5-1.5c1.3,0.1,1.7,0.7,1.6,1.9C84.9,422.3,85,422.5,85,422.8z"/>
<path class="st1" d="M192.9,219c0.9-1.3,0-2.6-0.2-3.9c-0.1-0.8-1-1.5-0.1-2.3c1.5,0.4,1.2,1.9,1.7,2.9c0.3,0.6,0.1,2,1.5,1.1
	c0.7,0.2,1.3,0.1,1.9-0.1c-0.8,0.7-1.4,2-3,1.1C194.1,217.5,194.1,219.4,192.9,219z"/>
<path class="st2" d="M56.3,336.8c-0.1,3.4-2.2,6.2-2.5,9.6c-1.5-0.6-1.9-2.2-1.2-2.9C54.5,341.6,55.3,339.2,56.3,336.8z"/>
<path class="st2" d="M43.1,275.1c-0.6-0.4-0.7-0.9-0.4-1.5c1.1,0.2,2-0.6,3-0.8c0.5-0.1,0.8-0.3,1.2,0.1c0.3,0.4,0.5,0.9,0.3,1.5
	C46.4,276.8,45.5,277,43.1,275.1z"/>
<path class="st1" d="M202.2,215.7c1-1.9-0.3-3.6-0.1-5.5c2,0.2,0.8,2.4,1.7,3.2c0.4,0.3-0.4,1.2,0.5,1.5
	C203.9,215.9,203.1,215.9,202.2,215.7z"/>
<path class="st2" d="M50.4,321.1c0.6,1.3,0.6,2.6,1.5,3.7c0.3,0.3,0,1.2-0.1,1.8c-0.1,0.4-0.3,0.9-0.9,0.9c-0.7,0.1-1-0.7-1-1
	C50,324.7,50.2,322.9,50.4,321.1z"/>
<path class="st2" d="M204.9,353.1c-0.8,0.1-1.6,0.9-2.2-0.2c-0.7-1.2-0.7-2.3,0.1-3.5c0.6,1.1-0.3,2.2,0.5,3.2
	c1.3-1.7,0.1-3.9,1-5.5c0.2,0.6,0.3,1.2,0.5,1.8C205.2,350.3,204.9,351.7,204.9,353.1L204.9,353.1z"/>
<path class="st1" d="M207.5,195c-1.1-0.6-1.3,0.5-1.8,1c-1.5-0.3-3.1-0.7-4.6-1c-0.1-0.3-0.2-0.4-0.5-0.4c0-0.3,0-0.7,0-1
	c0.5,0,0.9,0,1.4,0c0,0,0,0,0,0c0.4,0.5,0.9,0.6,1.4,0.3C204.9,194.3,206.2,194.6,207.5,195z"/>
<path class="st2" d="M208.8,344.1c0.2-1-1.1-1.9,0.2-2.8c0.5-0.3,0.9-0.2,1.2,0.1c1.4,1.1,1.3,2.5,0.6,4c-0.3-0.9,0-2-0.7-2.8
	C209.2,342.5,209.9,344,208.8,344.1z"/>
<path class="st2" d="M138.7,139.2c-0.9-2.2-0.6-4.4,0.1-7.1C139.5,134.8,138.7,137,138.7,139.2z"/>
<path class="st2" d="M270.8,379.4c2.6,2.2,2.9,5,1.2,6.6C271.6,384,271.2,382,270.8,379.4z"/>
<path class="st1" d="M156.2,87.2c-0.1-0.3-0.2-0.6-0.4-0.9c0.2-2.1,1.7-3.7,2.3-5.6c0.2,0,0.4,0.1,0.5,0.1c0,0,0,0,0,0
	c-0.5,1.8-1,3.6-1.5,5.4C156.9,86.5,156.5,86.8,156.2,87.2z"/>
<path class="st1" d="M211,216.4c0.6-1.4,1.3-2.8,0.8-4.3c1.8,0.6,1.1,2.3,1.5,3.5C212.1,214.7,211.7,216.1,211,216.4z"/>
<path class="st2" d="M51.7,337.8c0-2.1,1.5-2.6,2.1-3.7c0.2-0.4,0.7-0.3,0.9,0.1c0.2,0.4,0.6,0.9-0.1,1.4
	C53.7,336.3,52.9,337,51.7,337.8z"/>
<path class="st1" d="M186.9,209.4c0,1.8-2.5,1.4-2.5,3.1c-0.1,0.1-0.2,0.2-0.2,0.4c-0.2-0.1-0.4-0.1-0.5,0.2
	C182.9,211.1,183.7,210.2,186.9,209.4z"/>
<path class="st1" d="M203.5,201.5c-1.1,0.9-0.3,2.5-1.3,4.1c0-1.9-1.9-3.1,0-4.6C202,202.5,203,201.5,203.5,201.5z"/>
<path class="st2" d="M172.7,335.7c0.6,0.4,1.7-0.5,2,0.8c0.1,0.5-0.3,0.9-0.9,0.6c-0.9-0.6-2.5,0.5-2.9-0.9
	C170.8,335.4,172.1,335.8,172.7,335.7z"/>
<path class="st1" d="M279.3,409.5c-2.2-1.5-0.2-2.8,0.1-4.4c1.9,1.5,0.2,3,0.4,4.5c0,0-0.2,0-0.2,0L279.3,409.5z"/>
<path class="st2" d="M150.8,148.3c1.3-0.8,2.6-0.5,4.3-0.3c-1.4,1.1-2.5,1.6-3.9,1.6C150.8,149.3,150.6,148.9,150.8,148.3z"/>
<path class="st1" d="M204.8,348.9c-0.2-0.6-0.3-1.2-0.5-1.8c0.2-1.3-0.5-2.8,0.9-3.9C205.8,345.2,204.8,347,204.8,348.9z"/>
<path class="st2" d="M75.7,420.4c-1.1-1.6-1.4-3.4-1.5-5.3C75.6,416.6,75.4,418.5,75.7,420.4z"/>
<path class="st1" d="M188.8,205.9c-0.1-0.9-0.6-1.1-1.1-0.4c-0.4,0.5-0.7,0.4-1.2,0.4c0.4-1.5,1.9-2.2,3.1-1.6
	c0.3,0.2,0.4,0.4,0.3,0.7C189.9,205.7,189.4,206,188.8,205.9z"/>
<path class="st2" d="M274.2,378.3c-0.8-1.6-1.4-2.8-2-3.9c0.2-0.1,0.4-0.2,0.6-0.3C273.6,375.2,275.1,376,274.2,378.3z"/>
<path class="st1" d="M32,310.1c-0.7-2.1,0.2-3.7,1.7-5.1C33.1,306.8,32.6,308.5,32,310.1z"/>
<path class="st2" d="M257.1,262.1c-0.5-1.3-0.5-2.5-0.1-3.8C257.5,259.5,257.4,260.8,257.1,262.1z"/>
<path class="st2" d="M112.7,445.5c0-1.9,0-3.7,0-5.6c0.3,1.8,0,3.7,0.6,5.5C113.1,445.4,112.9,445.5,112.7,445.5z"/>
<path class="st2" d="M141.5,138.5c-0.6-2.6-0.6-2.6,0.5-3.9C141.4,136,142.4,137,141.5,138.5z"/>
<path class="st2" d="M183.6,213c0.1-0.3,0.2-0.3,0.5-0.2c0.1,0,0.1,0.1,0.2,0.1c0.5,0.3,1.1,0.6,1.6,0.8c-0.3,0.3-0.5,0.8-0.8,0.8
	C184.2,214.6,183.8,213.9,183.6,213z"/>
<path class="st2" d="M204.9,353.2c0.1,0,0.2,0,0.2,0c0.6-0.4,1.3-0.3,1.8,0.1c0.2,0.2,0.1,0.6-0.3,0.7
	C205.9,354.2,205.1,354.2,204.9,353.2C204.9,353.1,204.9,353.2,204.9,353.2z"/>
<path class="st2" d="M99.3,471.6c-0.2-1.4,0-2.7,0.5-3.9C99.9,469.1,100,470.4,99.3,471.6z"/>
<path class="st2" d="M211,349.3c1.1,1,0.6,1.8,0.5,2.6C210.7,351.2,211,350.4,211,349.3z"/>
<path class="st2" d="M98.7,476.2c-0.3-1.1-0.1-2.2,0.4-3.3C99.4,474.1,99.3,475.2,98.7,476.2z"/>
<path class="st2" d="M109,105c-0.4,0.9-1,1.8-1.9,2.6c-0.3-1.5,0.8-2.2,1.6-2.9C108.8,104.8,108.9,104.9,109,105z"/>
<path class="st2" d="M70.4,186.2c0.2-1,0.4-2,1.1-2.8C71.3,184.4,71.2,185.4,70.4,186.2C70.4,186.2,70.4,186.2,70.4,186.2z"/>
<path class="st2" d="M94,141.8c0.3-0.9,1-1.2,1.9-1.1C95.6,141.6,94.9,141.9,94,141.8z"/>
<path class="st2" d="M98.6,139.5c0.3-0.6,0.1-1.2,0-1.9c0.6,0.3,1.2,0.6,1.1,1.4C99.6,139.5,99.1,139.7,98.6,139.5z"/>
<path class="st2" d="M79.4,166.5c0.4,0.8-0.2,1.2-0.4,1.8C78.7,167.5,79.1,167.1,79.4,166.5z"/>
<path class="st2" d="M206.8,346.7c0.6-0.4,0.9-0.9,1.5-0.7C208.1,346.7,207.5,346.5,206.8,346.7z"/>
<path class="st2" d="M202.1,193.6c-0.5,0-0.9,0-1.4,0c-0.4-0.2-0.4-0.5-0.1-0.6C201.2,192.8,201.7,193.1,202.1,193.6z"/>
<path class="st2" d="M118.8,92.6c0.4-0.6,0.9-0.8,1.5-0.7C120,92.5,119.5,92.7,118.8,92.6z"/>
<path class="st2" d="M163,177c0.5,0.5,0.5,1.1,0.3,1.8C162.7,178.2,162.7,177.6,163,177z"/>
<path class="st2" d="M92.7,142.8c0-0.6,0.3-0.8,0.9-0.7C93.6,142.7,93.3,142.9,92.7,142.8z"/>
<path class="st2" d="M86.4,153.3c0.1-0.4,0.4-0.6,0.7-0.6c0,0,0.2,0.1,0.1,0.1c0,0.4-0.3,0.6-0.7,0.6
	C86.6,153.4,86.5,153.3,86.4,153.3z"/>
<path class="st2" d="M210.9,348.7c-0.1,0.1-0.3,0.2-0.3,0.2c-0.2-0.1-0.4-0.3-0.4-0.4c-0.1-0.2,0.1-0.5,0.4-0.3
	C210.6,348.4,210.7,348.6,210.9,348.7z"/>
<path class="st2" d="M121.1,91.6c0.3-0.4,0.6-0.7,1.2-0.5C122.1,91.7,121.6,91.8,121.1,91.6z"/>
<path class="st2" d="M203.5,194c-0.6,0.2-1,0.2-1.4-0.3C202.7,193.4,203.2,193.4,203.5,194z"/>
<path class="st2" d="M158.7,80.8c-0.2,0-0.4-0.1-0.5-0.1c-0.1-0.1-0.1-0.2,0-0.3c0-0.3,0.3-0.5,0.5-0.5
	C159.2,80.2,158.6,80.5,158.7,80.8z"/>
<path class="st2" d="M209,345.3c-0.1-0.1-0.1-0.2-0.2-0.3c0.1,0,0.3-0.1,0.4-0.1c0,0,0.1,0.1,0.1,0.2
	C209.2,345.2,209.1,345.2,209,345.3z"/>
<path class="st2" d="M42.6,272.8c-0.4-0.3-0.4-0.6-0.2-1C42.8,272,42.8,272.3,42.6,272.8z"/>
<path class="st2" d="M117.1,93.7c0.1-0.4,0.4-0.6,0.8-0.5C117.8,93.6,117.5,93.8,117.1,93.7z"/>
<path class="st2" d="M57.1,215.3c-0.1-0.4-0.1-0.7,0.4-0.8C57.6,214.9,57.4,215.1,57.1,215.3z"/>
<path class="st2" d="M85.7,160.8c0,0,0.1-0.1,0.1-0.1C85.7,160.7,85.7,160.7,85.7,160.8C85.7,160.8,85.7,160.8,85.7,160.8z"/>
<path class="st2" d="M83.8,160.3c0.1-0.1,0.1-0.1,0.2-0.2C83.9,160.2,83.9,160.2,83.8,160.3C83.8,160.3,83.8,160.3,83.8,160.3z"/>
<path class="st1" d="M154,155.2c0.2,0.2,0.4,0.4,0.5,0.5C153.9,156,153.8,155.7,154,155.2z"/>
<path class="st1" d="M153.6,155.2c0.2-0.1,0.4-0.3,0.5,0.1C153.9,155.3,153.7,155.2,153.6,155.2z"/>
<path class="st2" d="M200.7,194.6c0.3,0,0.4,0.1,0.5,0.4C200.9,195.1,200.7,194.9,200.7,194.6z"/>
<path class="st2" d="M85.7,160.8c-0.1,0.1-0.1,0.1-0.2,0.2C85.5,160.9,85.6,160.8,85.7,160.8C85.7,160.8,85.7,160.8,85.7,160.8z"/>
<polygon class="st2" points="77.5,178.6 77.6,178.5 77.6,178.7 "/>
<polygon class="st2" points="36.2,314.3 36.3,314.2 36.2,314.3 "/>
<path class="st2" d="M98.4,137.3c-0.3,0-0.4-0.2-0.3-0.5C98.4,136.9,98.5,137,98.4,137.3z"/>
<path class="st2" d="M37.1,328.2c0.1-0.1,0.1-0.1,0.2-0.2c0,0,0,0.1,0,0.1C37.3,328.2,37.2,328.2,37.1,328.2
	C37.2,328.2,37.1,328.2,37.1,328.2z"/>
<path class="st2" d="M268.7,472.9c-0.1,0.3-0.2,0.4-0.5,0.3C268.2,472.9,268.3,472.8,268.7,472.9z"/>
<path class="st0" d="M156.2,87.2c0.3-0.3,0.6-0.7,1-1c1.3,0.6,3.3,0.3,3.6,2.5c0,0.2,0.9,0.3,1.2,0.6c0.9,1,2.5-0.1,3.2,1.1
	c1.2,1.7,2.5,1.4,3.9,0.5c0.1,0.1,0.3,0.2,0.4,0.3c0.3,1,0.5,1.9-0.1,2.8c-1.4,2.1,0.8,2.8,1.6,3.8c0.9,1.1,1.7-0.3,2.5-0.6
	c1.7-0.6,2-1.8,1.4-3.4c-0.5-1.3-1-2.8-1.2-4.2c-0.2-1.3-0.9-1.8-2-2.3c-3.6-1.6-5.5-4.1-5.5-8.3c0-2.9,0.9-5.5,1.3-8.3
	c0,0,0-0.1,0-0.1c1.4-0.8,0.8,1.2,1.7,1.2c0.4-0.8,0.3-1.6,0.1-2.3c-0.3-1.2-1.5-2.1-1.8-3.4c0.3-0.9,1.1-1.1,1.9-0.9
	c0.8,0.2,0.5,1.1,0.6,1.8c0.8,4.4,1.5,8.9,2.2,13.3c-0.1,0.8-0.6,2,0.4,2.2c1.1,0.2,2.3-0.3,2.7-1.7c0.4-1.1,0.1-2.3,0.2-3.4
	c0.1-0.5,0-1.6,1-1.5c0.8,0,0.7,0.9,1,1.3c1.9,2.7,2.5,6.1,4.7,8.7c0.2,0.2,0.3,0.5,0.5,0.8c0.8,1.3,0.6,3.6,3,3.5
	c1.1,3.3,4.3,5.6,4.6,9c0.2,2,2.3,3.3,1.3,5.4c0.9,0.4,1.5-0.1,2-0.4c0.5-0.3,1.2-0.6,1.1-1.3c-0.1-0.6-0.6-1-1.3-1.2
	c-2-0.8-2.4-4-0.7-5.6c0.9-0.9,2.3-1.3,2.7-2.7l0,0c1.1-0.1,1.9-1,3.2-0.8c-0.5,1.7-2.5,2-3.2,4c1.9-0.9,3.9,0.2,5.5-1.4
	c0.5-0.5,0.9-0.3,1.4,0.2c1.3,1.7,3.4,2.1,5.1,0.8c1.4-1,2.8-0.2,3.8,0.3c1,0.4,1.7,1.5,3.1,1.1c0.1,0,0.4,0.2,0.4,0.4
	c0.1,0.3-0.1,0.6-0.4,0.7c-0.7,0.2-1.3,0.6-2,0.3c-0.5-0.2-1.1-0.3-1.6-0.2c-4.2,1.1-8.4,1.5-12.7,1.9c-1.9,0.2-2.2,1-0.7,2.3
	c1.7,1.5,3.6,2.7,6.1,2.7c1.3,0,2.6-0.1,3.9-0.1c1.6,0,3,1.6,2.9,3.1c0,0.7-0.4,0.9-1,1c-4.8,0.4-9.1,2.8-14.3,3.6
	c1.2,1.2,2,2.2,3,3c0.6,0.5,1.6,1.2,2.3,0.5c1.3-1.2,2.7-0.7,4.1-0.5c3.3,0.3,6.6,0.9,9.9,0c1-0.3,2.5,1.6,2.3,2.6
	c-0.5,2.6-1.9,4.4-4.4,5.3c-0.3,0.1-0.7,0.6-0.7,0.8c0.2,3.1-1.2,5.4-3.4,7.4c-1.1,1,0.7,1.2,0.7,1.9c-2.4,0.3-2.4,0.3-4.9,2.7
	c-0.6,0.6-1.3,1-2.3,1c-0.6,0-1.3-0.2-1.7,0.4c-0.9,1.3-1.5,0.6-2.4,0c-2.6-1.9-5.3-3.8-8.8-3.6c-0.4,0.9,0.3,0.9,0.6,1.2
	c0.4,0.5,1,0.9,0.6,1.6c-0.4,0.7-1.1,0.2-1.7,0.3c-1.5,0.1-3.1,0.1-4.5,0.5c-1.5,0.5-1.6,1.9-1.2,3.4c0.3,1,1.3,2.2-0.8,3
	c1.5,0.5,2,1.4,2.4,2.9c0.9,3.6,2.6,6.9,3.5,10.5c0.3,1.2,1.1,2.9,1,3.4c-0.7,2.1,1.7,2.7,1.6,4.3c-0.6,0.5-0.7-1.1-1.3-0.5
	c-0.4,0.4,0.1,1,0.1,1.4c0,1.1,1.1,2.3,0.2,3.3c-0.5,0.6-1.1,1-1.5-0.4c-1.7-6.8-4.6-13.2-6.2-19.9c-0.4-1.6-1-3.2-2.4-4.1
	c-1.1-0.7-0.4-1.7-0.6-2.5c-0.8-3.5-1.9-7-2.4-10.5c-0.2-1.4-1.3-2.3-2.6-2.6c-1.5-0.3-2.6,0.6-3.4,1.7c-0.3,0.4-0.4,0.9-1,0.8
	c-0.6-0.2-0.3-0.8-0.3-1.2c-0.1-3.3,0.4-6.4,2.4-9.2c0.9-1.3,1.4-2.7,0.9-4.3c-0.2-0.6-0.9-1.9,1-1.4c0.3,0.1,0.1-0.8,0-1.2
	c-0.2-1.6-0.4-3.2-0.7-4.9c1.7,1.1,2.1,1.7,1.7,4.7c-0.2,1.9,0.6,3.6,0.3,5.5c-0.2,0.2-0.3,0.4,0,0.6c0,0,0.3-0.2,0.4-0.3
	c2.1-1.4,1.8-3.4,1-5.5c1.1,0.2,0.7,1.5,1.9,1.4c0.3-2.6-1.3-5-0.8-7.6c0.8,1.8,1.6,3.7,2.4,5.5c1-2.7-0.3-4.4-2.2-5.7
	c-0.7-1.6-1.8-2.5-3.6-3.1c-2-0.6-3.7-1.8-5.6-2.6c-1.1-0.5-0.7-1.2-0.5-1.9c0.6-2.4-1.6-6.5-3.8-7.2c-0.8-0.2-1.1,0.3-1.4,0.9
	c-1.1,1.7-2.3,3.3-4.6,3.2c-0.2,0-0.5,0.1-0.6,0.2c-0.5,0.4-0.8,1.9-1.6,0.6c-0.6-0.9-1.1-2.3,0.4-3.2c0.7-0.4,1.4-1,2.1-1.3
	c0.7-0.3,0.4,0.3,0.5,0.6c-0.3,0.3-0.9,0.5-0.4,0.9c0.3,0.2,0.6-0.2,0.7-0.6c0.4-0.5,0.8-1.1,1.2-1.6c1.4-2.1,1-3.2-1.3-4.4
	C157.8,88.8,156.3,88.9,156.2,87.2z M180.2,136.6c-0.6-0.4-0.6-1.4-1.4-1.7c-0.1,0-0.4,0.4-0.4,0.4c0.4,0.6,0.5,1.5,1.1,1.8
	C179.8,137.2,180.1,137.1,180.2,136.6z M185.6,154.9c0.2-0.2,0.4-0.4,0.4-0.5c0-0.2-0.1-0.5-0.2-0.6c-0.4-0.2-0.4,0.2-0.5,0.4
	C185.3,154.4,185.5,154.6,185.6,154.9z"/>
<path class="st0" d="M230.3,36.3c-1.2,0.9-0.1,2.3-0.8,3.5c-2.5-1.2-4.7-2.5-5.9-5.5c-0.9-2.4-3.3-4.5-5.6-3.5c-1.6,0.7-3.2,0-4.8,1
	c-1.7,1-4.7,1.1-7.1,0.8c-1.4-0.2-2.8,0.6-4.2-0.4c-0.5-0.4-0.8,0.5-1.2,0.9c-1.6,1.3-3.1,2.7-5.5,2c-1.5-0.4-3.1,0.6-4.7,0.9
	c-2.7,0.5-5.4,0.5-8,0.3c-1.9-0.1-3.4,0.5-4.9,1.2c-1.7,0.9-3.1,2.2-5.3,1.5c-0.9-0.3-3.1,3.3-3.2,5.1c-0.1,1.2,0,2.4,0,4.1
	c-0.8-1.6-1.9-1.9-3.1-1.7c-0.1-0.1-0.1-0.3-0.2-0.4c0.2-0.3,0.2-0.5-0.2-0.6c-0.7-4.1-1.5-8.1-1.8-12.2c-0.5-6.4,0.7-11.9,6-16
	c6.7-5.2,13.9-9.6,22.3-11.5c7.5-1.7,14.5-0.7,21.3,2.4c0.1,0.5,0.2,1.1,0.3,1.6c0.1-0.5,0.4-0.8,0.7-1c0.2,0.1,0.3,0.1,0.5,0.2
	c0,0.5,0.3,0.8,0.7,1c3.4,1.8,5.9,4.3,7.4,7.9c0.4,0.8,0.7,1.6,0.2,2.2c-0.8,0.8-1-0.9-1.8-0.7c-0.5,0.6-0.1,1.1,0.2,1.4
	c0.9,0.9,3.2,1.4,0.4,2.8c0,0,0.2,0.4,0.2,0.6c-0.4,1.8,1.7,4-0.8,5.6c-0.3,0.2-0.3,0.5,0,0.8c0.2,0.1,0.3,0.3,0.5,0.4
	c0.4-1.8,3.5-0.6,3.3-3c0-0.4,0.2-0.8,0.7-0.8c0.2,0,0.6,0,0.4,0.3c-0.8,1.8,2.3,3.7-0.2,5.4c0.6,0.4,1.3,0,1.5,0.7
	c-0.6,0.2-1.3,0.3-1.9,0.5c0.8,0.4,1.6,0.6,1.9-0.4c0.7,0,1.5,0.6,2.2,0c0,0.5,0,0.9,0,1.4c0,0-0.1,0.1-0.1,0.1
	c0,0.1,0.1,0.2,0.1,0.3C230.3,35.7,230.3,36,230.3,36.3z"/>
<path class="st2" d="M169.1,90.8c-1.4,0.9-2.8,1.3-3.9-0.5c-0.8-1.2-2.3-0.1-3.2-1.1c-0.3-0.3-1.1-0.3-1.2-0.6
	c-0.3-2.2-2.3-1.9-3.6-2.5c0.5-1.8,1-3.6,1.5-5.4c1.7,0.1,3.3,0,5,0.6c1.5,0.5,2.2-0.1,2.1-1.7c-0.1-2.1-0.2-4.3,0.4-6.4
	c0.3-0.9,0.1-2.2,1.4-2.6c-0.3,2.8-1.3,5.4-1.3,8.3c0,4.3,2,6.7,5.5,8.3c1.1,0.5,1.8,0.9,2,2.3c0.2,1.4,0.7,2.8,1.2,4.2
	c0.6,1.7,0.3,2.8-1.4,3.4c-0.8,0.3-1.7,1.8-2.5,0.6c-0.8-1.1-3-1.8-1.6-3.8c0.6-0.9,0.3-1.9,0.1-2.8c0.4-0.3,0.6-0.6,0.3-1
	c0.4,0.1,0.5-0.1,0.5-0.5c0.2,0,0.4-0.1,0.2-0.4c-0.1,0.1-0.2,0.2-0.2,0.3c-0.2,0.2-0.3,0.3-0.5,0.5
	C169.6,90.3,169.3,90.5,169.1,90.8z M164.3,85.9c-1.2,0.4-1.3,1.6-2,2.4C163.3,87.8,164.1,87.1,164.3,85.9c0-0.1,0.1-0.1,0.1-0.2
	c0,0,0-0.1,0-0.1C164.3,85.7,164.3,85.8,164.3,85.9z"/>
<path class="st2" d="M231.4,55.9c0.2,1,0,2.1,1.8,1.7c1.2-0.3,2.1,0.7,2.7,1.8c1.7,3.3,3.4,6.7,4,10.3c0.3,2-0.3,4.5-1.7,6.4
	c-1,1.2-2.3,2.3-3.6,3.2c-1.6,1.2-2.3,0.8-2.4-1.2c-0.1-3.5,0-7.1-0.1-10.6C232,63.6,231.6,59.7,231.4,55.9z M234.6,61
	c0.3,0.1,1,0.2,1,0.2c0.3-1-0.1-1.6-1.1-2.2c-0.1,0.6-0.2,1.1-0.3,1.6c-0.5,0.2-0.8,0.4-0.5,1c0.1,0.2,0.2,0.7,0.6,0.4
	C234.8,61.8,234.6,61.4,234.6,61z"/>
<path class="st2" d="M228,33.6c-0.2-0.7-0.9-0.3-1.5-0.7c2.5-1.7-0.6-3.6,0.2-5.4c0.1-0.3-0.2-0.3-0.4-0.3c-0.5,0-0.7,0.4-0.7,0.8
	c0.2,2.4-3,1.2-3.3,3c-0.2-0.1-0.3-0.3-0.5-0.4c-0.3-0.2-0.3-0.6,0-0.8c2.5-1.5,0.4-3.7,0.8-5.6c0-0.2-0.2-0.6-0.2-0.6
	c2.8-1.4,0.5-1.9-0.4-2.8c-0.3-0.3-0.7-0.9-0.2-1.4c0.8-0.2,1,1.6,1.8,0.7c0.5-0.5,0.1-1.4-0.2-2.2c-1.6-3.5-4.1-6.1-7.4-7.9
	c-0.4-0.2-0.8-0.5-0.7-1c7.3,3.3,12,9,14.1,16.7c0.7,2.6,1.5,5.2,1,7.9C229.5,34.2,228.8,33.6,228,33.6L228,33.6z"/>
<path class="st2" d="M167.5,66.1c0.2,1.3,1.4,2.1,1.8,3.4c0.2,0.8,0.3,1.6-0.1,2.3c-0.9,0-0.3-2-1.7-1.2c0-0.8-0.1-1.6-0.4-2.4
	C167,67.5,166.4,66.6,167.5,66.1z"/>
<path class="st2" d="M214.7,8.8c-0.4,0.3-0.7,0.6-0.7,1c-0.1-0.5-0.2-1.1-0.3-1.6C214.1,8.2,214.4,8.5,214.7,8.8z"/>
<path class="st2" d="M229.6,128.8c0.3,0.3,0.3,0.8,0.1,0.9c-0.4,0.1-0.2-0.3-0.2-0.5C229.4,129.1,229.5,129,229.6,128.8z"/>
<path class="st0" d="M230.4,41.8c-0.5-0.3-0.4-0.5,0-0.8C230.4,41.3,230.4,41.6,230.4,41.8z"/>
<path class="st2" d="M165.7,45.6c0.4,0.1,0.4,0.3,0.2,0.6C165.6,46,165.5,45.8,165.7,45.6z"/>
<path class="st2" d="M230.3,35.4c0-0.1-0.1-0.2-0.1-0.3c0,0,0-0.1,0.1-0.1c0.1,0.1,0.1,0.2,0.2,0.3
	C230.4,35.4,230.4,35.4,230.3,35.4z"/>
<path class="st1" d="M282.1,410.9c-0.8-1.9-0.3-3.5,1.2-4c0.2-0.1,0.5,0,0.6,0.1c0.1,0.1,0.2,0.4,0.2,0.6
	C282.6,408.1,283.3,409.9,282.1,410.9z"/>
<path class="st0" d="M283,322.9c-0.9-1.3-2.4-1.5-2.1-3.2C281.8,320.5,282.8,321,283,322.9z"/>
<path class="st0" d="M187.9,72.6c0.4-0.1,0.9-0.2,1.3-0.3c-0.7,1.5-2.6,2.6-5.6,3.4c-2.4,0.7-4.5,0.9-6.1-1.8
	c-1.1-1.7-1.6-0.2-2,1.5c-1-3.8-2.7-6.9-1-10.6c0.4-0.9,0.4-2.3,0.1-3.3c-0.7-3.1-0.6-6.3-0.7-9.4c0-1.2,0.7-2.3-0.8-3.1
	c-0.1,0,0.2-0.7,0.3-1.1c0.2-0.6,1.7-1.6-0.5-1.6c-0.3,0-0.3-0.7,0-1c1.1-1,2.1-2.2,3.9-2.1c0.4,0,1.3,0.1,1.1,0.5
	c-1,2,0.6,1.7,1.6,2c0.5,0.2,0.6,0.6,0.6,1.1c0,0.6-0.2,1.1-0.9,1.1c-0.4,0-0.8,0-1.1,0.2c-0.5,0.2-1.2,0.3-1.1,1
	c0.1,0.7,0.8,0.6,1.3,0.6c1.2,0.2,2.2-0.4,3.3-0.8c0.5-0.2,1.3-0.3,1.6,0.4c0.2,0.7-0.5,0.8-1,0.9c-0.9,0.2-2.1,0.4-1.8,1.6
	c0.2,1,1.3,1.2,2.3,1.2c0.5,0,0.9,0,1.5,0.6c-1.3,0.9-2.8,0.7-4,1.2c-0.5,0.2-1.1,0.2-1.2,0.9c0,0.6,0.5,0.7,0.9,0.9
	c3.4,1,6.4,3.3,10.1,3.5c0.7,0,1.5,0.2,2.1,0.9c1,1.2,2.2,1.7,3.7,1.2c1.3-0.4,1.6,0.6,1.6,1.3c0.5,3.7-0.2,7.5,0.4,11.3
	c0.3,2-1.5,3.5-1.7,5.4c0,0.4-0.5,0.5-0.9,0.5c-0.6,0-0.7-0.5-0.8-1c-0.4-1.9-0.2-3.7,0.5-5.4c0.8-1.9,0.9-3.8,0.8-6.1
	c-2,2.1-4,1.3-5.9,0.3c-0.5-0.2-0.7-0.6-1.3,0.1c-2.4,3.2-3.3,3.2-5.9,0.4c-0.1,2.1,1,3,3.5,3c0.6,0,1.5-1.2,1.9,0.3
	c-0.4,0.1-0.8,0.1-0.7,0.6c0,0.1,0.2,0.3,0.3,0.3C187.8,73.3,187.9,72.9,187.9,72.6z M180.3,66.8c0.1,0.2,0.1,0.4,0.2,0.6
	c2.3-0.3,4.5-0.6,6.8-1C184.8,65.1,182.5,65.8,180.3,66.8z"/>
<path class="st0" d="M222,57c-2.8-0.5-5.2-0.7-7.6,0.1c-1.9,0.6-3,2.5-4.9,3.2c-1,0.3-1.9,1.1-2.9,1.4c-2.8,0.9-2.7,0.8-3.3-2
	c-0.3-1.3,0-1.2,1.2-1.5c3-0.6,5.7-2.2,8.3-3.7c3.1-1.8,7.6-1.2,9.9,1.5c0.2,0.2,0.1,0.5,0.2,0.8C222.5,56.9,222.1,57,222,57z"/>
<path class="st0" d="M195.6,93.3c-1.1-0.5-2.2-1.1-1.8-2.6c0.2-1.2-0.7-1.8-1.3-2.5c-0.8-1-1-2.1-0.5-3.3c0.6-1.5,1.9-2.5,3.3-3
	c1.1-0.3,1.7,1.2,2.1,2.1c0.5,1.2,1.3,1.5,2.5,1.5c0.6,0,1.6-0.3,1.8,0.6c0.2,0.9,1.6,0.8,1.3,1.6c-0.3,1.1-1.3,0.4-1.9,0.4
	c-0.1,0-0.2,0-0.2,0C199.6,90.3,196.3,90.5,195.6,93.3C195.6,93.3,195.6,93.3,195.6,93.3z"/>
<path class="st0" d="M206.3,65.5c0.1-1.4,1.6-2.2,3.6-1.7c0.7,0.2,1.6-0.3,2.4-0.6c2.4-0.6,4.7-0.8,7,0.2c0.4,0.2,0.8,0.4,0.7,0.8
	c-0.1,0.4-0.6,0.8-0.9,0.9c-1,0.5-0.3-0.5-0.5-0.7c-0.8-0.8-1.3-0.1-1.8,0.5c-1.9,2.7-2.8,2.7-5.4,0.6c-1.3-1-1.8,0.2-1.9,1.2
	c-0.2,1.6-1.4,0.8-2.1,0.9C206.2,67.7,206.3,66.8,206.3,65.5z"/>
<path class="st1" d="M222.7,36.3c-0.2,2.3,0.4,4.1,0.5,6.3c-0.7-0.6-2.1-0.8-1.9-1C222.3,40,220.7,37.9,222.7,36.3z"/>
<path class="st0" d="M204.3,85.3c0.8-1.2,2-1.7,3.2-2.4c0.4-0.3,1.1-0.4,1.4,0.2c0.3,0.7,0,1.1-0.7,1.4c-1.1,0.6-2.3,1.1-3.6,1
	C204.5,85.5,204.4,85.4,204.3,85.3z"/>
<path class="st0" d="M210.3,69.5c1.2-2.9,3.6-0.6,5.3-1.4C214,69.2,211.9,68,210.3,69.5z"/>
<path class="st0" d="M163.8,127.8c-0.8-1.4-1.7-2.7-2.5-4.1C163.1,124.4,163.6,126,163.8,127.8z"/>
<path class="st1" d="M235.2,144.2c0.1,1.6-1.7,2.7-1.3,4.4C233.3,146.7,233.7,145.3,235.2,144.2z"/>
<path class="st0" d="M200.6,92.5c0.6-0.9,1.5-0.4,2.1-0.8c0.3-0.2,0.2-1.1,0.9-0.5c0.2,0.2,0.3,0.6,0.3,0.8
	c-0.1,0.5-0.4,0.9-0.9,0.9C202.2,92.8,201.4,92.7,200.6,92.5z"/>
<path class="st1" d="M236.5,137c-0.1,1.4,0.2,2.9-1.3,4.3C235.5,139.5,235.4,138.1,236.5,137z"/>
<path class="st1" d="M224.8,171.4c-0.4,0.6-0.8,1.3-1.1,1.9c-0.5-0.5,0.6-1.2-0.3-1.6C223.8,171.6,224.3,171.5,224.8,171.4z"/>
<path class="st0" d="M223.9,167c0.2,0.8,0.4,1.3,0.1,1.9c-0.1,0.1-0.7,0-0.8-0.1C223,168.2,223.3,167.7,223.9,167z"/>
<path class="st1" d="M233.3,149.2c0.1,0.8,0,1.3-0.4,2C232.6,150.4,232.5,149.8,233.3,149.2z"/>
<path class="st0" d="M224.8,171.4c-0.5,0.1-0.9,0.2-1.4,0.3C223.9,171.9,223.9,169.5,224.8,171.4z"/>
<path class="st0" d="M210.9,62.3c-0.1,0.3-0.3,0.5-0.6,0.4c0,0-0.1-0.1-0.1-0.2C210.4,62.2,210.6,62.2,210.9,62.3L210.9,62.3z"/>
<polygon class="st1" points="221.5,96.5 221.4,96.4 221.5,96.5 "/>
<path class="st1" d="M222.9,94.6c-0.1,0-0.1,0-0.2-0.1C222.8,94.6,222.9,94.6,222.9,94.6C222.9,94.7,222.9,94.6,222.9,94.6z"/>
<path class="st0" d="M204.6,85.6c-0.2,0.1-0.3,0.1-0.5,0.2c0.1-0.2,0.1-0.3,0.2-0.5C204.4,85.4,204.5,85.5,204.6,85.6z"/>
<polygon class="st1" points="225.6,58.8 225.4,58.9 225.4,58.7 "/>
<polygon class="st1" points="225,57.8 225.1,57.9 225,57.9 "/>
<path class="st0" d="M210.9,62.3c0.1-0.1,0.1-0.1,0.2-0.2c0,0,0,0.1,0,0.1C211,62.2,211,62.2,210.9,62.3
	C210.9,62.3,210.9,62.3,210.9,62.3z"/>
<path class="st0" d="M269.8,460.1c0.4-2.8,1.4-4.7,2.5-6.7c0.2-0.4,0.4-0.9,1-0.6c0.2,0.1,0.3,0.7,0.3,1c-0.2,0.9-0.4,2-1,2.5
	C271.5,457.3,271,458.7,269.8,460.1z"/>
<path class="st1" d="M208.3,215.2c-1.5-3.5-1-7.4-1.9-11C208.6,207.5,208,211.4,208.3,215.2z"/>
<path class="st0" d="M195.8,216.8c-1.4,0.9-1.2-0.5-1.5-1.1c-0.5-1-0.3-2.5-1.7-2.9c0.1-0.5,0.2-0.9,0.7-1c0.6-0.1,0.8,0.4,0.8,0.8
	C194.5,214.1,194.9,215.5,195.8,216.8z"/>
<path class="st0" d="M213.7,205.6c1.2,0,2.3,0.1,2.9,1.3c0.1,0.2-0.4,0.6-0.6,0.4c-1-0.8-2.7-0.2-3.4-1.4
	C212.3,205.4,213.2,205.3,213.7,205.6z"/>
<path class="st1" d="M197.8,209.4c1.1,1.3,1.5,2.8,1.3,4.5C198.7,212.4,198.2,210.9,197.8,209.4z"/>
<path class="st1" d="M197.3,205.7c0-1.5,0-3,0-4.5C197.4,202.7,198.1,204.2,197.3,205.7z"/>
<path class="st0" d="M69.5,190.4c-0.1,0.2-0.1,0.4-0.2,0.6c-0.1-0.1-0.2-0.1-0.2-0.2C69.2,190.6,69.4,190.5,69.5,190.4
	C69.5,190.4,69.5,190.4,69.5,190.4z"/>
<path class="st1" d="M62,201c-0.1,0.1-0.2,0.2-0.2,0.4c-0.1-0.1-0.2-0.2-0.2-0.3c0-0.2,0.1-0.4,0.3-0.4C61.9,200.7,62,200.9,62,201z
	"/>
<path class="st0" d="M82,163.1c0.1-0.1,0.2-0.2,0.2-0.3C82.5,163,82.2,163.1,82,163.1C82,163.1,82,163.1,82,163.1z"/>
<path class="st1" d="M61.3,202c0,0,0.1,0,0.1,0c0,0,0.1,0.1,0.1,0.2c-0.1,0.2-0.2,0.2-0.3,0C61.2,202.1,61.2,202.1,61.3,202z"/>
<path class="st2" d="M177.3,108.8c2,1.4,3.2,3,2.2,5.7c-0.8-1.8-1.6-3.7-2.4-5.5C177.2,108.9,177.2,108.9,177.3,108.8z"/>
<path class="st2" d="M180.2,136.6c-0.1,0.5-0.4,0.7-0.7,0.5c-0.7-0.4-0.8-1.2-1.1-1.8c0-0.1,0.3-0.4,0.4-0.4
	C179.6,135.1,179.6,136.1,180.2,136.6z"/>
<path class="st2" d="M158.9,95.3c-0.1,0.4-0.5,0.8-0.7,0.6c-0.5-0.4,0.1-0.7,0.4-0.9C158.7,95.1,158.8,95.2,158.9,95.3z"/>
<path class="st2" d="M185.6,154.9c-0.1-0.3-0.3-0.5-0.3-0.6c0.1-0.2,0.1-0.7,0.5-0.4c0.1,0.1,0.2,0.4,0.2,0.6
	C186,154.5,185.8,154.7,185.6,154.9z"/>
<path class="st2" d="M175,120.7c-0.1,0.1-0.4,0.4-0.4,0.3c-0.3-0.2-0.2-0.4,0-0.6C174.7,120.5,174.9,120.6,175,120.7z"/>
<path class="st2" d="M228,33.6c-0.3,1.1-1.1,0.9-1.9,0.4C226.7,33.9,227.4,33.7,228,33.6C228,33.6,228,33.6,228,33.6z"/>
<path class="st0" d="M164.2,85.9c-0.2,1.2-0.9,1.9-2,2.4C162.9,87.5,163.1,86.3,164.2,85.9L164.2,85.9z"/>
<path class="st0" d="M169.8,90.1c0.3,0.5,0.1,0.8-0.3,1c-0.1-0.1-0.3-0.2-0.4-0.3C169.3,90.5,169.6,90.3,169.8,90.1
	C169.8,90,169.8,90.1,169.8,90.1z"/>
<path class="st0" d="M169.8,90c0.2-0.2,0.3-0.3,0.5-0.5c0,0,0.1,0.1,0.1,0.1C170.3,89.9,170.2,90.1,169.8,90
	C169.8,90.1,169.8,90,169.8,90z"/>
<path class="st0" d="M170.2,89.5c0.1-0.1,0.2-0.2,0.2-0.3C170.7,89.5,170.5,89.6,170.2,89.5C170.3,89.6,170.2,89.5,170.2,89.5z"/>
<path class="st0" d="M164.3,85.9c0-0.1,0.1-0.2,0.1-0.3c0,0,0,0.1,0,0.1C164.3,85.8,164.3,85.8,164.3,85.9
	C164.2,85.9,164.3,85.9,164.3,85.9z"/>
<path class="st1" d="M234.3,60.6c0.1-0.5,0.2-1,0.3-1.6c0.9,0.6,1.3,1.3,1.1,2.2c0,0-0.7-0.1-1-0.2
	C234.5,60.9,234.4,60.8,234.3,60.6z"/>
<path class="st1" d="M234.6,61c0,0.4,0.1,0.8-0.2,1c-0.4,0.2-0.4-0.2-0.6-0.4c-0.4-0.6,0-0.8,0.5-1C234.4,60.8,234.5,60.9,234.6,61z
	"/>
<path class="st2" d="M180.3,66.8c2.2-1,4.4-1.7,6.9-0.3c-2.3,0.3-4.5,0.6-6.8,1C180.4,67.2,180.4,67,180.3,66.8z"/>
<path class="st2" d="M187.9,72.6c-0.1,0.4-0.2,0.7-0.7,0.7c-0.1,0-0.3-0.2-0.3-0.3c0-0.5,0.4-0.5,0.7-0.6
	C187.8,72.4,187.9,72.5,187.9,72.6z"/>
</svg>
